<?xml version="1.0" standalone="no"?>
<!DOCTYPE svg PUBLIC "-//W3C//DTD SVG 20010904//EN"
 "http://www.w3.org/TR/2001/REC-SVG-20010904/DTD/svg10.dtd">
<svg version="1.0" xmlns="http://www.w3.org/2000/svg"
 width="567.000000pt" height="600.000000pt" viewBox="0 0 567.000000 600.000000"
 preserveAspectRatio="xMidYMid meet">

<g transform="translate(0.000000,600.000000) scale(0.100000,-0.100000)"
fill="#000000" stroke="none">
<path d="M3047 5633 l-97 -57 0 -82 0 -82 -132 -77 c-73 -42 -140 -80 -148
-86 -17 -11 -386 -221 -442 -252 l-38 -21 0 -653 c0 -359 -2 -653 -4 -653 -3
0 -87 48 -188 106 -101 58 -275 158 -387 222 -185 107 -204 120 -218 155 -25
61 -98 98 -130 66 -9 -9 -36 2 -109 45 l-97 56 -66 -39 c-36 -21 -83 -48 -104
-60 l-37 -21 -67 41 c-76 47 -66 48 -196 -28 l-77 -46 2 -1300 3 -1299 70 -40
c39 -22 88 -50 110 -63 106 -60 824 -475 925 -534 63 -37 196 -114 295 -171
99 -56 200 -115 225 -130 25 -15 99 -58 165 -95 66 -37 130 -74 141 -81 20
-12 32 -7 123 47 l101 60 0 82 c0 81 1 82 30 99 l30 17 2 655 3 655 200 -115
c110 -64 222 -128 249 -144 40 -23 49 -34 51 -60 3 -34 30 -70 52 -70 8 0 27
7 43 15 29 15 32 14 137 -48 422 -248 399 -239 473 -192 32 20 109 65 390 227
52 30 171 99 265 153 l169 98 67 -36 c37 -21 73 -37 80 -37 8 0 55 24 104 53
l90 53 3 1297 2 1297 -38 24 c-22 13 -129 76 -238 139 -284 163 -571 328 -859
495 -607 350 -819 472 -826 472 -2 0 -48 -26 -102 -57z m393 -120 c135 -77
301 -173 370 -213 69 -40 215 -124 325 -187 110 -64 252 -146 315 -183 63 -37
223 -129 355 -205 132 -76 248 -144 258 -151 17 -11 9 -17 -68 -63 l-87 -51
-66 39 c-37 21 -85 49 -107 61 -22 12 -65 37 -95 55 -30 18 -233 135 -450 261
-378 217 -651 375 -845 489 -49 29 -152 88 -228 133 l-138 80 88 51 c78 45 89
49 108 37 11 -7 130 -76 265 -153z m-215 -113 c50 -28 91 -53 93 -55 4 -4 -61
-43 -260 -156 l-137 -78 -115 68 -116 68 198 115 c183 106 199 114 222 102 14
-6 66 -35 115 -64z m115 -165 l0 -76 -27 15 c-52 28 -83 53 -76 60 4 4 -1 4
-12 0 -12 -4 -17 -3 -12 2 10 11 109 72 120 73 4 1 7 -33 7 -74z m155 6 c3 -5
2 -12 -3 -15 -5 -3 -9 1 -9 9 0 17 3 19 12 6z m-585 -159 c135 -77 261 -149
280 -160 19 -11 121 -69 225 -129 105 -61 282 -163 395 -228 232 -133 434
-250 468 -272 24 -15 24 -15 4 -29 -11 -8 -63 -38 -116 -68 l-95 -54 -133 77
c-73 43 -209 122 -303 176 -93 54 -222 128 -285 165 -63 37 -203 118 -310 180
-107 62 -238 139 -290 169 -52 31 -145 85 -207 121 l-112 64 35 23 c19 13 40
21 47 17 6 -4 9 -4 5 1 -7 7 131 94 142 89 3 -1 115 -65 250 -142z m614 140
c3 -5 -1 -9 -9 -9 -8 0 -12 4 -9 9 3 4 7 8 9 8 2 0 6 -4 9 -8z m-102 -125
c117 -68 355 -205 529 -305 173 -100 323 -188 332 -194 15 -12 11 -16 -31 -39
l-48 -27 -110 63 c-151 86 -419 241 -446 258 -13 8 -131 76 -263 152 -132 76
-251 144 -264 153 l-25 15 45 23 c24 13 49 23 56 24 7 0 108 -55 225 -123z
m-326 44 c5 -5 158 -94 339 -198 583 -335 720 -414 729 -423 5 -5 -6 -16 -26
-25 l-34 -17 -360 207 c-197 114 -402 233 -454 265 -52 31 -137 80 -187 109
-51 29 -93 54 -93 56 0 6 53 34 66 35 5 0 14 -4 20 -9z m-119 -67 c-3 -4 -14
-3 -24 0 -15 6 -15 8 -3 16 16 10 39 -4 27 -16z m-579 -66 l-1 -73 -7 65 -7
65 -1 -87 c-1 -49 -4 -88 -6 -88 -18 0 -146 84 -139 91 8 8 155 98 161 99 1 0
1 -33 0 -72z m84 12 c18 -11 26 -20 18 -20 -13 0 -13 -2 0 -11 13 -9 13 -10
-1 -6 -9 3 -29 -1 -44 -9 -15 -8 -30 -12 -33 -9 -3 3 0 5 6 5 7 0 12 6 12 14
0 9 7 12 19 9 10 -3 21 0 25 5 3 5 -5 13 -19 16 -14 4 -25 11 -25 16 0 14 5
13 42 -10z m1195 6 c0 -8 -6 -12 -15 -9 -11 5 -11 7 0 14 7 5 13 9 14 9 0 0 1
-6 1 -14z m197 -17 c-9 -14 -27 -6 -30 14 -2 14 1 15 17 6 11 -5 17 -15 13
-20z m-1231 -80 c19 -11 25 -19 17 -24 -9 -6 -9 -10 1 -17 11 -8 11 -9 -1 -5
-8 2 -14 12 -12 22 2 10 -1 14 -7 10 -6 -3 -11 -1 -11 4 0 6 -7 11 -16 11 -14
0 -14 -3 -4 -15 7 -8 9 -15 6 -15 -4 0 -14 7 -22 15 -9 8 -11 15 -5 15 23 0
10 18 -24 34 -19 9 -37 21 -40 26 -6 10 51 -20 118 -61z m1287 57 c0 -3 -4 -8
-10 -11 -5 -3 -10 -1 -10 4 0 6 5 11 10 11 6 0 10 -2 10 -4z m-1391 -54 c3 -4
21 -29 39 -55 18 -26 36 -63 39 -82 8 -48 -13 -45 -22 2 -10 55 -31 89 -72
119 -58 42 -59 44 -23 34 18 -5 36 -13 39 -18z m-199 -70 c0 -7 13 -15 29 -18
17 -4 32 -13 35 -21 4 -9 2 -12 -7 -7 -8 5 -8 2 2 -9 7 -9 17 -14 22 -11 5 3
9 -1 9 -9 0 -10 -9 -14 -25 -13 -16 0 -23 6 -20 13 2 7 1 12 -3 11 -4 -2 -21
6 -39 17 -25 14 -30 22 -21 32 17 21 -4 15 -45 -12 -32 -23 -37 -31 -37 -66 0
-67 35 -130 89 -158 13 -7 18 -17 14 -27 -3 -8 4 -28 16 -44 16 -23 21 -43 21
-95 l0 -66 -30 18 c-23 13 -35 15 -47 7 -22 -14 -48 -54 -35 -54 6 0 13 9 17
19 6 19 33 36 43 26 3 -3 1 -18 -4 -33 -7 -19 -17 -27 -32 -26 -35 1 -26 -13
33 -48 l55 -33 0 -213 0 -212 -25 -10 c-21 -8 -25 -16 -25 -51 0 -36 -2 -40
-15 -29 -9 8 -15 8 -15 2 0 -10 70 -58 80 -55 3 1 4 -14 2 -34 -3 -21 -1 -33
5 -30 5 3 10 0 10 -8 0 -11 -19 -5 -66 22 -36 20 -67 37 -69 39 -2 1 4 14 13
28 10 14 15 33 11 41 -8 21 -43 19 -56 -4 -22 -42 -12 -56 70 -102 54 -29 80
-50 80 -62 0 -15 -3 -16 -22 -6 -53 27 -144 84 -150 93 -8 13 -11 1270 -3
1278 9 9 134 -65 135 -80z m884 76 c-5 -7 -2 -9 8 -6 9 4 15 0 15 -8 0 -8 -4
-14 -7 -14 -12 0 -30 26 -23 33 10 11 15 8 7 -5z m543 -3 c0 -8 -4 -12 -9 -9
-5 3 -6 10 -3 15 9 13 12 11 12 -6z m-488 -19 c9 -11 9 -16 -1 -22 -7 -4 -10
-4 -6 1 4 4 3 14 -3 22 -6 7 -9 13 -6 13 2 0 10 -6 16 -14z m526 -14 c-3 -3
-11 0 -18 7 -9 10 -8 11 6 5 10 -3 15 -9 12 -12z m-1332 -1 c25 -10 87 -89 87
-111 0 -6 -11 -3 -26 6 -19 13 -22 19 -12 26 9 5 5 7 -12 6 -15 -2 -24 2 -23
9 2 7 -4 10 -12 7 -8 -3 -31 4 -51 17 l-36 22 23 13 c29 16 32 16 62 5z m1632
-19 c-3 -3 -11 0 -18 7 -9 10 -8 11 6 5 10 -3 15 -9 12 -12z m-1470 -3 c11
-16 1 -19 -13 -3 -7 8 -8 14 -3 14 5 0 13 -5 16 -11z m183 -48 c23 -11 42 -24
42 -30 0 -5 10 -11 23 -13 12 -2 21 -9 20 -15 -2 -6 6 -11 16 -10 19 1 116
-57 139 -83 8 -9 11 -10 7 -2 -9 17 18 4 82 -39 23 -16 53 -33 68 -39 15 -6
45 -23 68 -39 23 -15 70 -43 105 -60 39 -20 60 -36 56 -43 -4 -7 -3 -8 5 -4 7
5 40 -10 77 -33 36 -23 68 -41 71 -41 3 0 42 -22 87 -49 44 -27 135 -79 201
-116 66 -37 129 -74 139 -81 18 -12 17 -13 -8 -20 -20 -5 -33 -1 -50 15 -34
32 -80 42 -105 24 -12 -8 -27 -11 -34 -7 -6 4 -9 4 -5 0 3 -4 -2 -16 -12 -26
-9 -9 -20 -24 -22 -31 -3 -10 -27 0 -86 36 -79 48 -81 50 -58 62 33 18 38 47
13 84 -29 43 -61 54 -84 30 -10 -10 -33 -26 -50 -35 -38 -19 -39 -18 -166 57
-50 29 -65 43 -55 49 10 7 8 8 -4 4 -10 -3 -25 -3 -34 1 -13 5 -13 8 -2 15 10
7 9 8 -4 4 -11 -3 -67 23 -149 71 -72 43 -126 79 -119 81 7 3 16 -2 21 -9 5
-8 9 -9 9 -4 0 6 3 5 8 -1 4 -6 18 -14 32 -18 18 -5 14 0 -15 19 -25 16 -48
23 -62 20 -21 -5 -22 -2 -25 77 -3 74 -5 84 -25 94 -18 8 -20 13 -10 24 7 9 2
7 -14 -3 -33 -20 -45 -11 -22 16 17 20 17 20 -2 12 -30 -12 -85 -15 -85 -5 0
5 13 10 30 12 22 2 27 6 21 17 -7 11 -14 10 -39 -8 -17 -11 -37 -21 -45 -21
-9 0 -19 -4 -22 -10 -9 -15 -18 -12 -37 14 -16 22 -16 24 0 22 10 0 16 6 16
16 -1 11 4 15 15 11 13 -5 12 -2 -3 16 -20 22 -20 22 0 15 15 -5 14 -2 -6 16
l-25 22 35 -20 c19 -12 54 -30 78 -41z m552 35 c0 -2 -7 -7 -16 -10 -8 -3 -12
-2 -9 4 6 10 25 14 25 6z m840 -41 c0 -2 -5 -7 -12 -11 -7 -5 -8 -3 -3 6 6 9
4 12 -7 8 -8 -4 -15 0 -15 7 0 10 5 11 19 4 10 -5 18 -12 18 -14z m-240 -17
c0 -6 -6 -5 -15 2 -8 7 -15 14 -15 16 0 2 7 1 15 -2 8 -4 15 -11 15 -16z
m-1699 -20 c-9 -24 6 -98 20 -98 12 0 11 4 -2 34 -17 36 -4 76 25 76 52 0 105
-136 67 -172 -11 -10 -12 -10 -7 0 4 6 2 12 -4 12 -6 0 -9 4 -6 9 4 5 -4 7
-15 4 -21 -6 -21 -7 -4 -20 11 -7 14 -13 8 -13 -16 0 -29 23 -27 48 1 13 -4
22 -14 22 -10 0 -13 -7 -9 -22 5 -20 3 -19 -16 7 -12 16 -22 32 -22 35 -1 3
-4 17 -8 33 -4 15 -3 36 3 47 14 27 21 25 11 -2z m239 -15 c27 -16 50 -32 50
-36 0 -19 -65 -63 -73 -50 -9 14 -36 113 -31 113 2 0 26 -12 54 -27z m197 -16
c4 -7 0 -8 -11 -4 -10 4 -22 7 -27 7 -5 0 -9 4 -9 9 0 12 38 2 47 -12z m827 2
c-3 -5 -10 -7 -15 -3 -5 3 -7 10 -3 15 3 5 10 7 15 3 5 -3 7 -10 3 -15z
m-1083 -10 c15 -24 10 -75 -10 -93 -17 -16 -18 -15 -24 31 -3 27 -8 55 -12 64
-8 20 33 19 46 -2z m224 -13 c11 -8 24 -13 30 -12 5 2 7 1 2 -1 -4 -3 -5 -9
-1 -14 9 -14 0 -11 -36 16 -19 14 -29 25 -24 25 6 0 19 -6 29 -14z m122 8 c-3
-3 -12 -4 -19 -1 -8 3 -5 6 6 6 11 1 17 -2 13 -5z m-37 -13 c0 -5 -7 -14 -15
-21 -16 -14 -18 -10 -9 14 6 17 24 22 24 7z m90 -5 c0 -2 -9 -6 -20 -9 -11 -3
-18 -1 -14 4 5 9 34 13 34 5z m1295 -24 c-3 -3 -11 0 -18 7 -9 10 -8 11 6 5
10 -3 15 -9 12 -12z m-1345 4 c0 -2 -12 -11 -27 -20 l-28 -17 24 20 c23 21 31
25 31 17z m1391 -14 c-7 -2 -18 1 -23 6 -8 8 -4 9 13 5 13 -4 18 -8 10 -11z
m-1603 -16 c-7 -8 -15 -12 -17 -11 -5 6 10 25 20 25 5 0 4 -6 -3 -14z m1098
-9 c2 -15 0 -15 -22 0 -29 19 -30 20 -2 18 12 -1 22 -9 24 -18z m-1160 4 c-4
-5 0 -12 6 -14 8 -3 6 -6 -4 -6 -10 -1 -18 6 -18 14 0 8 5 15 11 15 5 0 8 -4
5 -9z m314 -10 c0 -5 -7 -12 -16 -15 -14 -5 -15 -4 -4 9 14 17 20 19 20 6z
m97 -41 c1 -27 0 -50 -2 -50 -13 0 -64 38 -58 43 3 4 0 7 -7 7 -14 0 25 33 50
43 8 3 15 6 16 6 0 1 1 -21 1 -49z m1679 -22 c59 -35 107 -67 106 -72 0 -5
-87 -59 -194 -120 l-193 -112 -117 66 c-65 36 -118 67 -118 70 0 7 383 228
397 229 6 1 60 -27 119 -61z m-2126 43 c0 -6 -4 -13 -10 -16 -5 -3 -10 -11
-10 -17 0 -6 6 -6 15 2 13 10 18 11 28 1 9 -10 8 -11 -7 -5 -12 5 -17 4 -13
-3 3 -5 -11 -20 -32 -31 -46 -26 -48 -26 -48 -8 0 8 6 12 15 8 11 -4 14 -1 9
10 -4 11 -1 14 12 11 12 -3 17 2 17 16 0 12 -4 21 -8 21 -4 0 -8 -4 -8 -9 0
-5 -9 -11 -20 -14 -29 -7 -25 0 13 23 36 22 47 25 47 11z m210 4 c0 -2 -10 -9
-22 -15 -22 -11 -22 -10 -4 4 21 17 26 19 26 11z m-150 -15 c0 -5 -4 -10 -10
-10 -5 0 -10 5 -10 10 0 6 5 10 10 10 6 0 10 -4 10 -10z m1204 -2 c-5 -8 -1
-9 12 -4 14 5 16 4 7 -5 -13 -13 -37 -3 -28 12 4 5 8 9 11 9 3 0 2 -5 -2 -12z
m531 -6 c-3 -3 -11 0 -18 7 -9 10 -8 11 6 5 10 -3 15 -9 12 -12z m80 -12 c3
-6 -1 -7 -9 -4 -18 7 -21 14 -7 14 6 0 13 -4 16 -10z m-1985 -46 c0 -14 -4
-23 -10 -19 -5 3 -10 15 -10 26 0 10 5 19 10 19 6 0 10 -12 10 -26z m1455 16
c3 -6 -1 -7 -9 -4 -18 7 -21 14 -7 14 6 0 13 -4 16 -10z m-899 -61 c4 -8 1 -8
-14 0 -12 6 -24 16 -28 22 -4 8 -1 8 14 0 12 -6 24 -16 28 -22z m964 21 c8 -5
11 -10 5 -10 -5 0 -17 5 -25 10 -8 5 -10 10 -5 10 6 0 17 -5 25 -10z m1200
-1284 l0 -1275 -82 -49 c-46 -26 -84 -46 -86 -43 -5 14 -6 2551 0 2551 3 0 39
20 79 45 40 25 77 45 81 45 4 0 8 -573 8 -1274z m-2703 1202 c-2 -13 -4 -5 -4
17 -1 22 1 32 4 23 2 -10 2 -28 0 -40z m603 27 c0 -2 -7 -1 -17 2 -12 5 -14 3
-8 -8 5 -8 4 -11 0 -6 -5 4 -10 14 -11 22 -2 12 2 12 17 5 10 -6 19 -13 19
-15z m-346 7 c3 -5 -1 -9 -9 -9 -8 0 -12 4 -9 9 3 4 7 8 9 8 2 0 6 -4 9 -8z
m1362 -18 c1 -9 0 -13 -4 -10 -3 4 -7 14 -8 22 -1 9 0 13 4 10 3 -4 7 -14 8
-22z m734 -1253 l0 -1280 -77 -44 c-101 -57 -249 -143 -290 -169 l-33 -20 0
1279 0 1279 143 84 c78 45 162 94 187 108 25 13 49 28 55 33 5 5 10 9 12 9 2
0 3 -576 3 -1279z m51 1262 c12 -16 12 -17 -2 -6 -9 7 -19 10 -22 6 -4 -3 -7
-1 -7 5 0 17 16 15 31 -5z m-1884 -15 c-3 -8 -6 -5 -6 6 -1 11 2 17 5 13 3 -3
4 -12 1 -19z m153 -23 c36 -19 37 -21 5 -20 -14 0 -25 4 -24 9 0 5 -5 13 -13
17 -22 15 1 10 32 -6z m-673 -52 c-3 -10 -5 -4 -5 12 0 17 2 24 5 18 2 -7 2
-21 0 -30z m443 -121 c0 -84 10 -102 60 -102 43 0 51 8 56 53 2 17 6 32 8 34
2 2 31 -13 66 -33 34 -19 60 -37 58 -39 -2 -1 -40 -23 -85 -49 -78 -45 -84
-47 -122 -36 -22 6 -46 16 -53 23 -7 7 -26 20 -43 29 -91 48 -104 56 -97 63 4
5 2 5 -4 2 -6 -4 -22 2 -34 13 -13 11 -29 20 -36 20 -8 0 -11 7 -8 18 5 13 4
14 -4 3 -8 -11 -15 -9 -37 11 l-27 25 37 22 c21 12 45 19 54 17 9 -3 23 -1 31
5 12 8 10 9 -7 4 -35 -10 -28 1 18 28 l41 25 64 -37 63 -36 1 -63z m80 112 c0
-2 -7 -4 -15 -4 -8 0 -15 4 -15 10 0 5 7 7 15 4 8 -4 15 -8 15 -10z m280 -17
c13 -5 13 -6 -1 -6 -9 -1 -24 9 -35 22 -19 22 -19 22 1 6 11 -9 27 -19 35 -22z
m-690 19 c0 -2 -7 -7 -16 -10 -8 -3 -12 -2 -9 4 6 10 25 14 25 6z m-134 -20
c3 -7 4 -32 2 -55 l-3 -41 -34 21 -33 20 23 25 c12 13 19 24 15 24 -4 0 -4 5
-1 10 9 14 25 12 31 -4z m164 10 c0 -2 -7 -7 -16 -10 -8 -3 -12 -2 -9 4 6 10
25 14 25 6z m-10 -36 c-24 -15 -36 -11 -14 4 10 8 21 12 24 10 2 -3 -2 -9 -10
-14z m774 -39 c-2 -3 -12 3 -22 13 -16 17 -16 18 5 5 12 -7 20 -15 17 -18z
m-399 -3 c20 -14 35 -31 35 -43 0 -17 -7 -20 -40 -20 l-40 0 0 43 c0 23 2 42
5 42 3 0 21 -10 40 -22z m-1863 -95 l2 -88 6 90 6 90 2 -86 c1 -47 -1 -88 -4
-92 -4 -3 -19 0 -35 8 -34 18 -43 19 -33 3 4 -7 3 -8 -5 -4 -6 4 -9 11 -6 16
3 5 -17 21 -44 36 l-49 28 72 42 c39 24 74 43 79 43 4 1 8 -38 9 -86z m97 52
c32 -19 63 -35 68 -35 5 0 14 -5 21 -12 15 -15 -28 -38 -70 -38 -16 0 -42 -7
-58 -15 l-30 -16 0 76 c0 41 2 75 4 75 3 0 32 -16 65 -35z m2481 28 c-1 -10
-85 -53 -102 -53 -16 0 72 58 90 59 6 1 12 -2 12 -6z m-225 -23 c3 -6 -1 -7
-9 -4 -18 7 -21 14 -7 14 6 0 13 -4 16 -10z m-2698 -90 c0 -49 -1 -90 -4 -90
-6 0 -108 57 -137 76 -16 11 -10 17 60 58 43 25 79 46 79 46 0 0 1 -40 2 -90z
m96 48 l56 -31 3 -90 c3 -100 -2 -108 -51 -82 -18 9 -37 13 -43 9 -6 -4 -8 -3
-4 4 3 6 0 14 -8 19 -11 6 -16 33 -18 106 -2 53 0 97 4 97 3 0 31 -14 61 -32z
m1662 22 c3 -6 -1 -7 -9 -4 -18 7 -21 14 -7 14 6 0 13 -4 16 -10z m1188 -21
c-4 -14 -12 -19 -24 -16 -10 3 -20 0 -22 -7 -2 -6 -8 -7 -13 -3 -11 11 15 27
33 20 8 -3 13 3 13 17 0 11 4 19 9 16 5 -3 7 -15 4 -27z m677 -1247 l0 -1278
-92 -54 c-51 -29 -103 -60 -115 -68 l-23 -14 0 1280 0 1280 58 33 c31 17 73
41 92 52 19 11 44 26 55 33 11 8 21 14 22 14 2 0 3 -575 3 -1278z m-1923 966
c-1 -57 -3 -11 -3 102 0 113 2 159 3 103 2 -57 2 -149 0 -205z m223 287 c36
-19 36 -20 6 -40 -22 -15 -26 -14 -61 6 l-37 22 23 13 c31 17 34 17 69 -1z
m-1272 -41 c29 -33 28 -48 -3 -28 -14 9 -22 21 -18 27 4 6 1 7 -6 2 -15 -8
-63 14 -55 26 9 15 59 -2 82 -27z m1562 22 c0 -9 -30 -14 -35 -6 -4 6 3 10 14
10 12 0 21 -2 21 -4z m-247 -33 c-6 -19 -32 -43 -45 -43 -17 0 -7 28 15 43 29
21 38 21 30 0z m-1396 -5 c7 -1 11 -4 10 -7 -3 -8 29 -52 34 -47 2 2 5 -11 6
-29 2 -22 -4 -41 -18 -56 -11 -13 -18 -17 -16 -9 2 8 -2 29 -10 47 -15 38 -16
46 -4 38 15 -9 25 15 12 28 -9 9 -10 7 -5 -8 7 -18 6 -19 -11 -5 -15 12 -17
12 -10 1 6 -10 4 -12 -4 -7 -7 5 -10 15 -7 23 3 8 1 11 -5 8 -13 -9 -41 14
-33 27 4 5 16 7 28 3 11 -3 26 -7 33 -7z m1238 2 c-3 -5 -14 -10 -23 -10 -15
0 -15 2 -2 10 20 13 33 13 25 0z m625 -31 c0 -7 -29 -26 -132 -85 l-56 -32 -7
26 c-6 25 -2 30 35 51 8 5 29 8 46 6 20 -1 31 3 31 12 0 16 -9 17 -25 1 -6 -6
-14 -9 -18 -6 -3 3 19 19 48 35 47 26 54 28 66 14 6 -8 12 -18 12 -22z m-2135
-42 c7 -7 6 -8 -3 -3 -19 11 -101 -24 -108 -46 -8 -27 -3 -30 32 -16 17 6 42
8 56 5 41 -11 104 -117 91 -154 -7 -19 -87 25 -106 57 -9 15 -13 31 -9 35 4 5
2 5 -5 1 -6 -3 -25 2 -41 11 -28 17 -29 21 -31 102 l-2 83 58 -32 c32 -18 63
-37 68 -43z m212 42 c22 -19 63 -105 63 -133 l0 -25 -52 30 c-29 17 -58 39
-65 49 -7 10 -29 28 -49 40 l-35 22 28 19 c30 20 84 19 110 -2z m1600 -23 c1
-1 -11 -9 -27 -18 -26 -15 -30 -15 -61 4 l-33 20 24 18 c24 18 26 18 60 -2 19
-12 36 -22 37 -22z m-217 8 c0 -2 -9 0 -20 6 -11 6 -20 13 -20 16 0 2 9 0 20
-6 11 -6 20 -13 20 -16z m1367 -16 c9 -10 13 -21 9 -25 -4 -4 -10 -3 -14 3 -4
5 -24 20 -44 33 -21 12 -38 24 -38 26 0 10 72 -21 87 -37z m-3332 -28 c33 -19
61 -34 63 -35 1 -1 3 -530 3 -1175 l0 -1173 -50 -27 c-27 -15 -65 -37 -85 -49
l-36 -23 0 1272 0 1272 23 -14 c12 -8 49 -30 82 -48z m735 45 c17 -9 30 -22
30 -31 0 -9 -5 -12 -12 -8 -6 4 -8 3 -5 -3 4 -6 0 -16 -8 -23 -12 -10 -16 -9
-19 1 -2 8 -9 29 -15 47 -11 37 -10 37 29 17z m1097 -22 c-3 -10 -5 -4 -5 12
0 17 2 24 5 18 2 -7 2 -21 0 -30z m205 12 c-5 -27 -16 -32 -28 -13 -4 6 1 17
11 25 24 17 23 17 17 -12z m983 -3 c-3 -3 -11 0 -18 7 -9 10 -8 11 6 5 10 -3
15 -9 12 -12z m-330 -2 c-3 -5 -12 -10 -18 -10 -7 0 -6 4 3 10 19 12 23 12 15
0z m-2214 -20 l24 -21 -32 16 c-32 15 -42 25 -24 25 5 0 19 -9 32 -20z m1409
16 c0 -2 -7 -7 -16 -10 -8 -3 -12 -2 -9 4 6 10 25 14 25 6z m623 -82 c-1 -62
-6 -90 -17 -103 -11 -13 -16 -38 -16 -87 l0 -70 -36 -17 c-19 -10 -40 -14 -46
-11 -6 4 -8 2 -4 -4 5 -9 -42 -52 -58 -52 -3 0 -6 74 -6 164 l0 164 88 50 c48
28 89 51 92 51 3 1 4 -38 3 -85z m-1666 42 c650 -372 768 -444 765 -463 -11
-61 -9 -65 58 -105 69 -40 90 -47 71 -24 -7 8 -8 16 -4 18 4 3 2 3 -6 1 -18
-4 -92 38 -85 49 3 5 13 3 22 -4 15 -11 15 -11 4 3 -7 9 -10 24 -6 33 8 21 25
10 18 -12 -5 -13 -4 -14 4 -4 8 12 15 11 41 -2 27 -14 31 -22 31 -56 0 -29 -6
-43 -22 -54 -13 -10 -23 -27 -23 -43 0 -17 -6 -27 -13 -25 -11 2 -93 49 -622
354 -85 49 -215 124 -287 166 -73 41 -133 81 -133 87 0 6 10 17 23 24 57 29
83 49 92 69 5 12 10 22 11 22 1 0 28 -15 61 -34z m1353 14 c0 -12 -12 -26 -30
-35 -28 -15 -30 -14 -30 4 0 10 10 26 23 34 30 21 37 21 37 -3z m1081 1 l23
-18 -28 -18 c-27 -18 -29 -18 -62 0 -40 21 -42 28 -11 43 33 16 52 14 78 -7z
m-2840 -49 c16 -18 27 -37 24 -42 -3 -4 -1 -10 5 -12 13 -4 30 -97 19 -104 -5
-3 -9 6 -9 20 0 36 -29 108 -51 127 -10 9 -15 19 -12 23 4 3 0 6 -8 6 -8 0
-25 9 -39 20 l-25 20 34 -13 c18 -6 46 -27 62 -45z m18 36 c-7 -8 37 -48 53
-48 9 0 22 -9 28 -19 13 -25 13 -81 0 -81 -5 0 -10 -7 -10 -16 0 -8 -4 -12
-10 -9 -5 3 -9 16 -8 29 3 34 -22 88 -56 119 -20 18 -24 26 -12 21 15 -6 17
-4 11 7 -4 8 -5 11 -1 7 4 -3 6 -8 5 -10z m2970 -42 c-1 -20 -1 -21 -6 -1 -3
11 -9 24 -14 30 -5 5 -9 14 -9 20 0 5 7 1 15 -9 8 -11 14 -29 14 -40z m-612
30 c0 -8 -6 -12 -15 -9 -11 5 -11 7 0 14 7 5 13 9 14 9 0 0 1 -6 1 -14z m293
10 c0 -2 -7 -7 -16 -10 -8 -3 -12 -2 -9 4 6 10 25 14 25 6z m-503 -38 c-3 -7
-5 -2 -5 12 0 14 2 19 5 13 2 -7 2 -19 0 -25z m789 -21 c11 -47 11 -61 3 -83
-6 -14 -8 -10 -8 17 -1 20 -8 56 -16 79 -13 36 -13 41 -1 31 8 -7 18 -27 22
-44z m-1181 24 c-8 -14 -65 -41 -65 -31 0 5 12 15 28 23 33 18 45 20 37 8z
m943 -2 c17 -6 33 -18 37 -27 5 -13 4 -14 -6 -5 -10 10 -15 9 -23 -3 -10 -13
-16 -11 -44 10 -22 16 -29 26 -20 29 20 8 23 8 56 -4z m-2988 -49 c0 -3 -13
-13 -29 -23 -28 -16 -30 -16 -33 0 -2 10 -2 28 0 39 4 21 5 21 33 5 16 -9 29
-18 29 -21z m2638 1 c260 -150 320 -187 311 -194 -19 -16 -171 -97 -180 -97
-7 0 -90 44 -183 99 -94 54 -182 104 -195 111 -23 12 -22 13 33 46 32 19 61
34 67 34 5 0 9 4 9 8 0 10 38 30 58 31 7 1 43 -16 80 -38z m532 20 c19 -37 12
-78 -17 -100 -16 -12 -33 -25 -40 -31 -16 -13 -28 47 -19 95 10 51 56 73 76
36z m-1503 -38 c-3 -10 -5 -4 -5 12 0 17 2 24 5 18 2 -7 2 -21 0 -30z m-1251
12 c4 -8 10 -12 15 -9 5 3 9 1 9 -5 0 -6 -9 -15 -19 -20 -16 -9 -19 -6 -23 19
-5 31 8 41 18 15z m1982 -11 c2 -1 -5 -5 -15 -8 -9 -4 -14 -4 -10 0 4 4 1 14
-6 23 -11 14 -10 15 8 1 11 -8 21 -15 23 -16z m322 22 c0 -2 -7 -7 -16 -10 -8
-3 -12 -2 -9 4 6 10 25 14 25 6z m-2599 -23 c13 -15 12 -15 -11 -3 -34 17 -36
20 -18 20 9 0 22 -7 29 -17z m1965 -310 c-3 -7 -10 -13 -16 -13 -16 0 -14 327
3 333 9 3 13 -33 15 -152 1 -85 0 -161 -2 -168z m51 295 c-3 -7 -5 -2 -5 12 0
14 2 19 5 13 2 -7 2 -19 0 -25z m771 -65 c7 -13 10 -23 8 -23 -13 0 -36 62
-35 92 1 32 2 32 8 -7 4 -22 13 -50 19 -62z m64 73 c9 -16 5 -31 -10 -31 -4
-1 -17 -6 -29 -13 -20 -11 -23 -10 -29 13 -3 14 -1 31 5 38 15 19 51 14 63 -7z
m-2957 -23 c-1 -25 6 -51 22 -76 13 -21 26 -51 30 -67 5 -26 3 -30 -16 -30
-12 0 -32 -5 -43 -11 -17 -9 -24 -7 -43 12 -23 24 -30 59 -26 138 1 35 1 35
56 17 17 -6 16 -4 -3 10 l-24 17 24 13 c13 7 23 13 24 14 1 0 0 -17 -1 -37z
m2025 -143 c-1 -167 -5 -185 -39 -172 -24 9 -28 19 -30 78 -1 40 3 56 14 60
20 8 19 43 -1 51 -19 7 -17 70 4 95 8 10 12 24 9 32 -5 14 15 26 36 22 5 -1 8
-76 7 -166z m-1976 151 c3 -5 -3 -11 -14 -14 -13 -3 -20 0 -20 9 0 15 26 19
34 5z m433 -11 c30 -16 33 -20 16 -20 -37 0 -49 -22 -48 -89 0 -33 -2 -61 -5
-61 -3 1 -21 9 -40 19 -26 14 -35 26 -36 47 -1 16 -5 38 -8 49 -6 16 2 25 36
47 24 14 44 27 46 27 1 1 19 -8 39 -19z m2555 -77 c-8 -13 -11 -8 -17 25 -7
44 -5 59 8 55 4 -2 8 3 9 10 1 6 3 -7 5 -30 2 -24 0 -50 -5 -60z m-2997 36 c6
-17 9 -19 16 -8 6 9 9 10 9 2 0 -23 -18 -22 -34 2 -9 14 -12 25 -7 25 5 0 13
-10 16 -21z m115 -16 c0 -7 -39 17 -46 28 -3 6 5 3 20 -6 14 -10 26 -19 26
-22z m1573 23 c8 3 17 1 21 -4 8 -14 -53 -7 -67 8 -10 10 -8 10 10 1 12 -6 28
-8 36 -5z m122 4 c-3 -5 -12 -10 -18 -10 -7 0 -6 4 3 10 19 12 23 12 15 0z
m1391 -20 c-1 -16 -3 -30 -6 -30 -3 0 -1 -82 3 -182 7 -157 5 -191 -9 -236 -9
-29 -18 -51 -21 -48 -3 2 0 21 7 41 9 28 9 39 -1 51 -6 8 -9 18 -5 21 4 4 11
1 16 -6 4 -8 6 66 3 165 -3 98 -8 181 -10 184 -3 3 -3 -68 0 -157 3 -103 1
-165 -5 -169 -5 -3 -24 8 -42 25 -19 18 -42 31 -56 30 l-25 0 25 -12 c14 -6
29 -17 33 -24 4 -7 14 -13 21 -13 8 0 16 -6 19 -14 7 -17 -18 -6 -69 31 -30
21 -31 26 -30 84 1 40 5 64 14 66 8 3 12 -9 12 -40 0 -27 -5 -47 -12 -50 -7
-2 -1 -6 13 -9 l25 -5 -4 81 c-2 45 -6 83 -8 85 -2 2 -10 -2 -19 -9 -9 -7 -18
-10 -22 -7 -3 4 2 9 11 13 9 3 13 10 10 15 -7 11 45 4 57 -8 4 -4 10 -39 12
-78 l3 -70 2 72 c1 39 7 75 12 78 6 3 10 26 10 51 0 32 -3 43 -12 38 -6 -4 -8
-3 -4 4 3 5 1 12 -6 14 -8 3 -6 7 5 11 11 4 17 1 17 -8 0 -8 5 -15 11 -15 6 0
9 6 6 13 -4 11 9 47 17 47 2 0 3 -13 2 -30z m-2701 1 c10 -17 -33 -33 -55 -21
-27 14 -16 30 20 30 16 0 31 -4 35 -9z m2455 0 c0 -38 -51 -59 -64 -26 -3 10
1 15 14 15 10 0 22 5 25 10 8 13 25 13 25 1z m-2830 -37 c0 -4 -7 -4 -15 0 -8
3 -15 1 -15 -4 0 -6 8 -10 18 -10 9 -1 2 -7 -16 -15 -25 -11 -39 -12 -54 -4
-19 10 -17 22 3 25 22 3 23 5 9 15 -11 8 -9 9 10 3 23 -6 24 -6 10 11 -14 17
-14 17 18 1 17 -9 32 -19 32 -22z m426 27 c5 -5 97 -59 204 -121 247 -142 244
-141 313 -179 31 -18 57 -35 57 -38 0 -2 -4 -2 -9 2 -5 3 -21 0 -35 -6 -23
-11 -25 -18 -28 -80 l-3 -67 -55 34 c-30 18 -62 37 -70 41 -8 4 -102 58 -209
120 -106 62 -198 113 -203 113 -6 0 -7 9 -3 23 4 12 9 51 11 87 2 36 3 68 4
73 0 10 14 9 26 -2z m1799 -1 c3 -6 -1 -7 -9 -4 -18 7 -21 14 -7 14 6 0 13 -4
16 -10z m-2176 -37 c-17 -19 -26 -16 -31 11 -4 22 -3 23 18 14 19 -9 21 -14
13 -25z m129 25 c15 -15 16 -38 2 -38 -5 0 -10 7 -10 16 0 8 -4 12 -10 9 -5
-3 -10 1 -10 9 0 19 11 21 28 4z m2046 -31 c-9 -5 -28 -4 -46 4 -27 11 -29 14
-14 25 14 10 23 9 46 -4 24 -14 26 -18 14 -25z m-699 14 c-2 -4 -29 -16 -59
-26 -31 -11 -56 -24 -56 -29 0 -6 -5 -5 -12 2 -15 15 -14 15 52 45 50 22 87
26 75 8z m1453 0 c3 -9 0 -11 -9 -7 -8 4 -6 1 3 -7 10 -8 15 -17 11 -20 -7 -7
-43 31 -43 45 0 14 33 5 38 -11z m-2598 -35 c0 -30 -2 -31 -40 -31 -39 0 -40
1 -40 35 0 35 0 36 40 32 37 -4 40 -6 40 -36z m2498 -21 c-11 -11 -42 -8 -45
5 -4 13 -3 13 6 0 9 -13 11 -13 11 2 0 21 24 30 28 11 2 -8 2 -16 0 -18z m61
-1 c-18 -21 -27 -17 -21 11 3 20 7 23 18 14 11 -9 11 -15 3 -25z m-2801 18 c9
-6 6 -12 -13 -20 -15 -7 -25 -8 -25 -2 0 6 6 10 13 10 8 0 7 4 -3 10 -13 9
-13 10 0 10 8 0 21 -4 28 -8z m1384 -27 c23 6 23 6 3 -10 -11 -9 -41 -27 -66
-40 -40 -21 -46 -22 -47 -7 -2 41 10 63 41 75 29 13 33 12 39 -5 6 -14 14 -18
30 -13z m735 29 c-3 -3 -12 -4 -19 -1 -8 3 -5 6 6 6 11 1 17 -2 13 -5z m-2329
-41 c-6 -7 -16 -13 -22 -13 -6 0 -4 5 4 10 10 6 11 10 3 10 -7 0 -13 7 -13 15
0 13 3 13 19 3 15 -9 17 -15 9 -25z m141 10 c0 -16 -3 -22 -6 -13 -3 8 -10 21
-16 28 -7 8 -5 12 7 12 11 0 16 -8 15 -27z m2252 16 c16 -8 18 -13 9 -24 -10
-12 -16 -12 -42 1 -24 12 -28 18 -17 25 18 11 26 11 50 -2z m706 -9 c0 -9 -7
-17 -13 -17 -7 0 -12 8 -11 17 0 9 7 17 13 17 7 0 12 -8 11 -17z m-2999 -2
c14 -14 16 -48 3 -48 -12 0 -41 46 -34 54 9 9 18 7 31 -6z m195 -29 c32 -17
55 -35 52 -40 -4 -5 1 -6 9 -3 13 5 16 -3 16 -44 l0 -50 -70 -41 c-38 -23 -70
-47 -70 -54 0 -7 -13 -21 -30 -30 l-29 -18 0 138 c1 129 2 139 22 155 29 23
35 23 100 -13z m-219 -39 c6 0 -2 -11 -19 -24 l-30 -24 -17 35 c-17 34 -17 36
5 53 21 17 22 17 35 -11 8 -16 20 -29 26 -29z m2370 51 c3 -5 -1 -11 -9 -15
-15 -6 -29 7 -18 18 9 9 21 8 27 -3z m396 -1 c-8 -5 -10 -10 -4 -10 7 0 14 -6
17 -14 7 -17 -140 -109 -157 -99 -5 4 -2 9 7 12 12 4 14 10 7 21 -7 11 -10 11
-10 2 0 -7 -5 -10 -11 -6 -13 8 -6 14 54 49 26 15 47 23 47 18 0 -5 -16 -17
-35 -27 -19 -11 -33 -21 -31 -24 9 -8 76 40 76 54 0 9 5 12 10 9 6 -4 8 -11 5
-16 -4 -5 -2 -9 4 -9 15 0 23 18 11 25 -13 8 -3 25 13 25 7 0 6 -4 -3 -10z
m50 -23 c0 -5 -4 -5 -10 -2 -5 3 -10 14 -10 23 0 15 2 15 10 2 5 -8 10 -19 10
-23z m58 21 c-2 -6 -10 -14 -16 -16 -7 -2 -10 2 -6 12 7 18 28 22 22 4z
m-3095 -19 c5 -3 2 -9 -7 -12 -12 -5 -16 0 -16 15 0 12 3 17 8 12 4 -5 11 -12
15 -15z m2174 -1 c-3 -8 -6 -5 -6 6 -1 11 2 17 5 13 3 -3 4 -12 1 -19z m494 1
l24 -20 -30 17 c-39 24 -40 24 -28 24 6 0 21 -9 34 -21z m-2091 1 c0 -5 -9
-10 -21 -10 -11 0 -17 5 -14 10 3 6 13 10 21 10 8 0 14 -4 14 -10z m940 -9 c0
-23 -25 -46 -35 -32 -7 13 12 51 25 51 6 0 10 -8 10 -19z m359 16 c-2 -1 -13
-9 -24 -17 -19 -14 -19 -14 -6 3 7 9 18 17 24 17 6 0 8 -1 6 -3z m777 -23 c22
-15 23 -17 7 -29 -16 -12 -35 -6 -73 23 -5 4 21 22 33 22 4 0 19 -7 33 -16z
m-1046 -4 c0 -5 -2 -10 -4 -10 -3 0 -8 5 -11 10 -3 6 -1 10 4 10 6 0 11 -4 11
-10z m106 -5 c-13 -10 -15 -15 -6 -15 7 0 11 -2 8 -5 -3 -3 -13 -2 -23 1 -15
6 -15 8 6 20 32 18 39 17 15 -1z m857 0 c4 -8 1 -17 -5 -21 -7 -5 -8 -2 -3 6
6 10 4 12 -8 7 -11 -4 -14 -2 -10 9 7 18 19 18 26 -1z m-2287 -262 c-3 -7 -19
-13 -35 -13 -17 0 -41 -10 -56 -22 -23 -21 -25 -26 -15 -55 14 -40 40 -49 80
-28 l30 16 0 -155 c0 -139 -2 -156 -18 -165 -11 -6 -24 -6 -36 1 -11 6 -16 7
-13 1 4 -6 -5 -15 -18 -21 -14 -7 -26 -16 -26 -22 -1 -5 -2 -16 -3 -22 -3 -22
25 -58 46 -58 10 0 30 7 43 16 l25 16 0 -71 c0 -53 -3 -71 -13 -71 -33 0 -77
-32 -77 -55 0 -13 5 -27 11 -30 6 -4 8 -12 6 -19 -6 -14 44 -18 61 -4 9 8 12
-9 12 -81 0 -77 -3 -91 -16 -91 -24 0 -74 -39 -74 -58 0 -9 9 -28 19 -42 17
-21 22 -23 45 -12 26 12 26 11 26 -33 0 -48 -16 -65 -62 -65 -55 -1 -76 -56
-38 -98 20 -21 21 -21 55 -4 19 9 36 24 38 32 3 8 5 -46 6 -121 l1 -136 -25
-11 c-14 -7 -33 -12 -41 -12 -9 0 -35 -14 -60 -30 l-44 -31 0 844 0 845 25 16
c14 9 25 23 25 31 0 8 24 27 53 41 28 15 54 32 57 38 7 15 12 -244 6 -261z
m1654 252 c-14 -8 -29 -14 -35 -14 -5 0 1 6 15 14 14 8 30 14 35 14 6 0 -1 -6
-15 -14z m237 -22 c-3 -10 -5 -4 -5 12 0 17 2 24 5 18 2 -7 2 -21 0 -30z m548
27 c3 -6 -1 -7 -9 -4 -18 7 -21 14 -7 14 6 0 13 -4 16 -10z m440 0 c-3 -5 -10
-10 -16 -10 -5 0 -9 5 -9 10 0 6 7 10 16 10 8 0 12 -4 9 -10z m-3140 -6 c19
-8 55 -75 55 -103 0 -33 -29 -34 -60 -1 -31 33 -42 70 -28 94 10 18 11 18 33
10z m80 -19 c0 -28 -10 -33 -19 -9 -9 24 -7 34 7 34 6 0 12 -11 12 -25z m29
-34 c-5 -13 -8 -10 -14 9 -9 35 1 60 12 30 5 -13 6 -31 2 -39z m2906 10 l0
-50 -27 15 c-39 20 -59 18 -77 -8 -32 -45 -21 -70 44 -106 57 -31 60 -35 60
-70 0 -28 -3 -33 -10 -22 -5 8 -10 11 -10 7 0 -5 -10 -1 -22 7 -29 21 -33 20
-58 -6 -29 -31 -26 -75 5 -90 31 -14 27 -20 -40 -56 l-55 -30 0 178 0 178 35
22 c19 12 40 18 47 14 7 -4 10 -3 5 1 -6 8 77 64 96 65 4 0 7 -22 7 -49z
m-1060 11 c0 -21 -7 -32 -27 -43 -16 -7 -45 -24 -65 -36 l-38 -23 0 38 c0 38
2 40 58 65 31 15 60 27 65 27 4 0 7 -13 7 -28z m-1410 2 c11 -13 10 -19 -8
-37 l-22 -21 0 37 c0 40 10 46 30 21z m1310 7 c0 -11 -39 -21 -45 -11 -2 4 -2
10 2 14 10 9 43 7 43 -3z m817 -7 c-3 -3 -12 -4 -19 -1 -8 3 -5 6 6 6 11 1 17
-2 13 -5z m64 -13 c29 -18 30 -20 12 -29 -26 -14 -79 18 -61 36 15 15 12 15
49 -7z m-315 -18 c-3 -20 -22 -28 -31 -14 -3 7 0 8 9 5 11 -4 14 0 11 15 -2
12 0 19 5 16 4 -3 7 -13 6 -22z m365 10 c13 -16 12 -17 -3 -4 -17 13 -22 21
-14 21 2 0 10 -8 17 -17z m-1021 -7 c0 -2 -7 -7 -16 -10 -8 -3 -12 -2 -9 4 6
10 25 14 25 6z m1294 -11 c-4 -8 -11 -12 -16 -9 -6 4 -5 10 3 15 19 12 19 11
13 -6z m-2414 -37 c0 -5 -11 -14 -25 -20 -14 -6 -25 -17 -25 -25 0 -7 0 -16 0
-20 0 -4 13 -8 30 -9 18 -1 38 -11 51 -25 14 -17 22 -20 25 -11 3 6 10 12 16
12 6 0 16 7 23 16 9 13 19 15 40 10 l29 -7 -32 -25 c-18 -14 -32 -29 -32 -34
0 -19 120 -63 146 -53 20 8 17 24 -3 16 -10 -3 -15 -3 -12 1 13 14 56 15 73 3
16 -12 11 -18 -55 -58 -40 -24 -76 -43 -79 -42 -3 0 -12 -3 -21 -7 -17 -10
-44 3 -44 21 0 7 -6 14 -14 17 -10 3 -11 0 -5 -9 5 -9 -1 -8 -16 3 -14 10 -47
30 -73 44 -27 14 -47 27 -44 30 5 5 90 -38 113 -56 8 -8 14 -8 19 -1 3 6 -7
16 -22 22 -49 20 -73 32 -70 36 2 2 18 -2 36 -8 24 -8 35 -8 46 1 9 7 18 10
22 6 3 -3 1 -6 -5 -6 -17 0 -15 -19 5 -38 12 -12 18 -13 21 -4 2 7 23 12 50
13 l47 0 -43 14 c-24 7 -52 21 -63 31 -14 13 -22 14 -32 5 -15 -12 -69 -12
-61 0 2 4 13 5 23 2 14 -3 33 8 63 37 40 40 40 42 11 27 -17 -9 -38 -24 -47
-32 -15 -15 -17 -15 -33 1 -17 17 -18 17 -21 -9 -2 -15 -6 -27 -10 -28 -4 -1
-22 -2 -40 -4 l-33 -3 2 92 c1 50 6 94 12 98 12 7 57 -11 57 -24z m1125 12
c-3 -5 6 -21 20 -34 26 -24 28 -24 59 -9 30 14 35 14 65 -5 32 -19 32 -20 11
-27 -16 -5 -20 -13 -17 -27 7 -25 3 -23 -101 40 -73 44 -81 51 -65 61 23 13
36 14 28 1z m203 -14 c17 -38 -4 -49 -44 -23 -33 22 -33 22 -11 34 32 18 43
16 55 -11z m797 -156 c0 -99 -3 -180 -7 -180 -5 0 -11 -1 -15 -2 -8 -3 -14
341 -6 355 2 4 10 7 16 7 9 0 12 -47 12 -180z m-2759 126 c25 -14 30 -14 46 1
17 15 18 -17 18 -825 0 -795 -1 -842 -17 -842 -10 0 -31 -8 -48 -18 -55 -33
-61 -33 -59 2 1 17 3 414 3 881 1 704 4 847 15 833 7 -10 26 -24 42 -32z
m2008 23 c-8 -13 -21 -11 -27 5 -4 10 0 12 14 9 10 -3 16 -9 13 -14z m996 -12
c0 -4 -4 -5 -10 -2 -5 3 -10 -3 -10 -14 0 -23 -15 -28 -26 -9 -4 6 1 17 11 25
11 7 13 13 7 13 -7 0 -12 5 -12 10 0 6 8 5 20 -2 11 -7 20 -16 20 -21z m-2461
-52 c-1 -41 -3 -75 -4 -75 -27 0 -35 17 -35 75 0 59 5 71 33 74 4 1 7 -33 6
-74z m941 61 c0 -16 -28 -42 -36 -33 -8 7 14 47 26 47 6 0 10 -6 10 -14z m185
-15 c-6 -5 -25 10 -25 20 0 5 6 4 14 -3 8 -7 12 -15 11 -17z m501 0 c-16 -11
-36 -16 -45 -13 -12 5 -10 8 9 10 14 2 29 8 35 13 5 5 14 9 20 9 5 0 -3 -9
-19 -19z m-1458 -9 l23 -18 -25 -13 c-29 -16 -66 -7 -48 11 19 19 14 30 -7 18
-11 -5 -26 -10 -33 -9 -14 1 40 28 57 28 6 0 20 -7 33 -17z m-244 -8 c-13 -11
-14 -14 -3 -11 11 4 16 -4 17 -29 3 -33 2 -33 -23 -22 -14 6 -25 15 -25 20 0
4 -7 8 -16 8 -8 0 -12 5 -9 11 5 7 13 5 25 -6 10 -9 21 -12 24 -7 3 6 -2 13
-11 16 -14 6 -14 8 3 21 26 20 43 19 18 -1z m1735 -1 c-7 -10 -14 -20 -16 -22
-1 -1 -7 0 -13 4 -8 5 -5 11 7 21 25 19 38 17 22 -3z m-451 -1 c8 -6 2 -9 -18
-9 -20 0 -26 3 -18 9 7 4 15 8 18 8 3 0 11 -4 18 -8z m1249 -48 c-6 -6 -67 29
-67 39 0 11 8 9 35 -9 24 -16 25 -15 26 7 2 20 3 20 6 -4 3 -16 3 -31 0 -33z
m-902 37 c3 -5 1 -12 -5 -16 -14 -9 -52 4 -45 16 8 12 42 12 50 0z m215 -16
c0 -8 -4 -17 -10 -20 -6 -4 -10 5 -10 20 0 15 4 24 10 20 6 -3 10 -12 10 -20z
m-703 -17 c-3 -8 -6 -5 -6 6 -1 11 2 17 5 13 3 -3 4 -12 1 -19z m434 5 c12
-15 12 -16 -4 -10 -10 4 -23 7 -28 7 -6 0 -7 5 -4 10 9 15 21 12 36 -7z m95 5
c4 -7 3 -8 -4 -4 -7 4 -12 3 -12 -2 0 -16 13 -22 26 -11 8 7 14 7 19 -1 11
-17 -20 -22 -49 -6 -26 13 -26 15 -9 25 23 13 21 13 29 -1z m1004 -10 c22 -13
40 -27 40 -31 0 -9 -6 -6 -59 30 -43 29 -32 30 19 1z m-1945 -8 c0 -18 -34
-24 -55 -10 -13 9 -13 11 0 20 21 14 55 8 55 -10z m1055 10 c0 -5 -5 -10 -11
-10 -5 0 -7 5 -4 10 3 6 8 10 11 10 2 0 4 -4 4 -10z m-953 -40 c38 -22 75 -44
83 -49 12 -6 15 -31 17 -112 1 -57 -1 -98 -3 -91 -3 6 -11 12 -17 12 -26 1
-172 98 -167 111 2 8 6 49 8 92 2 42 5 77 8 77 2 0 34 -18 71 -40z m514 19
l24 -20 -30 17 c-39 24 -40 24 -28 24 6 0 21 -9 34 -21z m179 16 c0 -2 -13
-11 -30 -20 -38 -19 -40 -11 -2 9 31 17 32 18 32 11z m-1194 -37 c-10 -6 -20
-7 -24 -3 -9 8 20 25 31 18 5 -3 2 -10 -7 -15z m59 10 c33 -15 32 -23 -6 -38
-22 -10 -33 -10 -42 -1 -8 8 -8 11 1 11 7 0 12 9 12 20 0 23 1 24 35 8z m859
-17 c6 -9 -90 -91 -107 -91 -6 0 -3 -6 7 -13 16 -12 16 -14 2 -14 -9 0 -16 4
-16 9 0 5 -4 6 -10 3 -5 -3 -10 -1 -10 5 0 6 -4 8 -10 5 -5 -3 -10 -2 -10 3 0
6 7 13 16 16 8 3 12 2 9 -4 -7 -12 -3 -12 19 -4 24 9 19 20 -15 34 l-30 13 58
33 c56 31 80 33 97 5z m286 6 c0 -16 -9 -28 -25 -35 -34 -15 -35 -15 -35 6 0
9 12 25 28 34 34 22 32 22 32 -5z m110 8 c13 -8 3 -25 -13 -25 -7 0 -18 9 -24
19 -11 17 -10 19 7 16 11 -2 25 -7 30 -10z m-1770 -13 c0 -10 -13 -26 -30 -35
-17 -10 -30 -13 -30 -8 0 6 6 11 13 11 9 0 8 3 -2 9 -10 7 -8 12 10 25 30 21
39 20 39 -2z m1890 -4 c0 -21 -10 -22 -45 -6 -18 8 -22 14 -13 19 23 14 58 6
58 -13z m-1025 -23 c0 -28 -2 -30 -37 -30 -36 0 -38 2 -38 30 0 29 2 30 38 30
35 0 38 -1 37 -30z m1844 12 c8 -10 7 -14 -4 -14 -8 0 -12 4 -9 8 2 4 -2 10
-8 12 -8 4 -9 6 -2 6 6 1 17 -5 23 -12z m101 -23 c0 -12 -5 -11 -26 2 -18 13
-22 19 -12 25 15 9 38 -7 38 -27z m-1407 3 c-4 -19 -78 -77 -98 -77 -18 0 3
31 43 62 56 44 61 45 55 15z m435 9 c25 -13 27 -19 30 -88 3 -87 -6 -118 -41
-137 -22 -12 -28 -12 -41 2 -9 8 -20 17 -25 19 -5 1 -11 45 -12 95 -3 82 -1
94 16 108 25 18 39 19 73 1z m-1640 -31 c0 -17 -5 -21 -19 -18 -12 3 -19 14
-19 28 0 18 4 22 19 18 11 -3 19 -14 19 -28z m-288 9 c0 -8 5 -12 10 -9 6 3
10 4 10 1 0 -16 -21 -13 -30 4 -7 13 -7 20 0 20 5 0 10 -7 10 -16z m2006 -75
c-1 -56 -5 -84 -13 -86 -10 -4 -13 17 -13 80 0 46 3 87 6 90 16 15 21 -8 20
-84z m1001 14 c-1 -52 -6 -77 -15 -79 -7 -1 -8 0 -2 3 5 2 9 23 8 46 -1 37 -2
38 -5 10 -4 -34 -9 -38 -31 -24 -11 7 -11 11 2 24 13 13 13 17 2 26 -11 9 -15
9 -18 0 -3 -8 -11 -10 -24 -4 -10 4 -25 7 -31 6 -7 -1 -13 5 -13 14 0 9 -7 18
-15 21 -8 4 -15 11 -15 18 0 6 12 -2 25 -17 14 -15 25 -22 26 -15 0 9 2 10 5
1 4 -8 13 -9 29 -3 18 7 25 5 29 -7 9 -22 36 2 36 33 0 13 2 24 5 24 2 0 3
-35 2 -77z m-2917 -98 c-2 -150 -3 -166 -20 -175 -10 -6 -23 -10 -28 -10 -6 0
-10 64 -11 160 0 153 1 160 22 175 12 8 25 15 30 15 4 0 7 -74 7 -165z m1715
147 c-3 -3 -11 0 -18 7 -9 10 -8 11 6 5 10 -3 15 -9 12 -12z m-1072 -9 c-7 -2
-9 -11 -6 -19 5 -13 7 -13 15 -2 8 10 9 10 5 -2 -4 -17 -107 -81 -119 -74 -4
3 -8 1 -8 -5 0 -6 -13 -17 -29 -26 -27 -13 -29 -13 -26 3 1 9 10 16 19 16 18
-2 22 11 6 21 -6 4 -19 1 -28 -6 -16 -12 -16 -12 0 6 14 15 19 16 33 5 12 -10
19 -10 27 -2 9 9 9 12 0 12 -22 0 -13 20 14 30 17 7 32 6 46 -1 14 -8 23 -8
29 0 5 6 6 9 3 7 -3 -3 -12 1 -19 7 -10 9 -7 15 14 28 14 9 28 14 31 11 3 -2
0 -7 -7 -9z m850 2 c18 -13 18 -14 -1 -24 -11 -6 -36 -10 -55 -9 -20 1 -43 -5
-52 -12 -11 -9 -19 -10 -26 -3 -7 7 1 14 23 22 18 7 44 18 58 26 32 17 32 17
53 0z m169 -7 c-6 -6 -15 -8 -19 -4 -4 4 -1 11 7 16 19 12 27 3 12 -12z m302
-18 c-5 -5 -10 3 -11 18 -1 22 0 24 9 8 6 -10 6 -22 2 -26z m680 34 c23 -9 19
-36 -9 -56 -23 -17 -60 -15 -49 3 8 14 26 11 19 -3 -4 -7 0 -5 8 5 8 9 19 17
26 17 6 0 11 5 11 10 0 7 -6 7 -20 0 -22 -12 -23 -10 -14 14 7 18 7 18 28 10z
m-2799 -34 c14 -26 14 -30 1 -30 -18 0 -40 36 -31 50 9 15 13 13 30 -20z m35
20 c0 -5 -2 -10 -4 -10 -3 0 -8 5 -11 10 -3 6 -1 10 4 10 6 0 11 -4 11 -10z
m906 -109 l3 -50 -54 -29 -53 -29 1 86 c0 47 -2 98 -6 113 l-7 28 57 -35 c57
-34 57 -35 59 -84z m358 68 c-3 -5 2 -6 10 -3 9 3 16 1 16 -5 0 -6 -4 -11 -9
-11 -24 0 -35 -80 -13 -96 16 -12 16 -13 0 -19 -10 -4 -15 -11 -12 -16 3 -5
-6 -9 -20 -9 -14 0 -28 5 -31 10 -5 8 -10 161 -6 192 1 4 17 -2 36 -13 19 -12
32 -25 29 -30z m469 27 c6 -14 -50 -9 -59 5 -3 5 3 6 12 2 11 -4 15 -3 11 4
-5 7 0 9 12 6 11 -3 22 -10 24 -17z m667 19 c0 -2 -10 -9 -22 -15 -22 -11 -22
-10 -4 4 21 17 26 19 26 11z m-2014 -17 c4 -7 3 -8 -5 -4 -6 4 -18 2 -26 -4
-9 -8 -15 -8 -15 -2 0 9 15 19 32 21 4 1 10 -4 14 -11z m2514 2 c0 -5 -4 -10
-10 -10 -5 0 -10 5 -10 10 0 6 5 10 10 10 6 0 10 -4 10 -10z m-2655 -18 c-3
-3 -11 0 -18 7 -9 10 -8 11 6 5 10 -3 15 -9 12 -12z m720 8 c4 -6 -6 -10 -22
-9 -25 0 -26 1 -8 9 11 5 21 9 22 9 1 1 5 -3 8 -9z m882 -22 c-3 -7 -5 -2 -5
12 0 14 2 19 5 13 2 -7 2 -19 0 -25z m-190 2 c2 -22 -21 -27 -47 -10 -13 9
-13 10 0 11 8 1 18 1 23 0 4 0 7 4 7 9 0 19 16 10 17 -10z m1309 -5 c12 0 20
-5 17 -12 -5 -12 -44 -14 -53 -3 -3 3 -16 11 -30 17 -23 11 -22 11 10 5 19 -3
45 -6 56 -7z m-1410 -3 c-3 -5 5 -8 17 -8 36 1 32 -29 -7 -52 -33 -19 -35 -19
-50 -3 -13 14 -13 20 -3 31 10 12 9 12 -6 1 -9 -8 -21 -10 -25 -6 -4 4 -2 10
4 12 6 2 20 10 30 18 21 16 48 20 40 7z m581 -24 c-3 -7 -5 -2 -5 12 0 14 2
19 5 13 2 -7 2 -19 0 -25z m279 17 c-13 -10 -15 -15 -6 -15 7 0 11 -3 7 -6 -3
-3 -11 -3 -18 2 -9 5 -7 11 6 21 11 7 21 13 24 13 3 0 -3 -7 -13 -15z m-2106
-5 c12 -8 11 -10 -7 -10 -13 0 -23 5 -23 10 0 13 11 13 30 0z m468 -155 c-3
-11 -11 -19 -18 -17 -7 1 -10 -3 -7 -10 7 -20 -13 -50 -29 -44 -8 3 -13 2 -10
-3 3 -5 -5 -11 -19 -13 -13 -3 -22 -2 -20 3 3 4 0 11 -6 15 -8 5 -9 3 -4 -6 6
-10 4 -12 -8 -7 -10 3 -17 2 -17 -3 0 -6 5 -10 10 -10 15 0 12 -17 -5 -24 -36
-14 -45 3 -45 89 l0 83 49 31 c27 18 66 40 87 50 l39 19 5 -66 c3 -37 2 -76
-2 -87z m542 132 c0 -12 -9 -30 -20 -40 -26 -22 -30 -21 -30 3 0 11 5 20 12
20 6 0 8 3 5 7 -8 7 11 33 24 33 5 0 9 -10 9 -23z m450 14 c0 -5 3 -16 6 -24
5 -15 -20 -47 -37 -47 -5 0 -9 16 -9 36 0 21 4 33 10 29 6 -3 10 -1 10 4 0 6
5 11 10 11 6 0 10 -4 10 -9z m1026 -10 c0 -11 -5 -17 -13 -14 -17 6 -17 20 0
26 6 3 12 6 12 6 1 1 1 -7 1 -18z m109 1 c-3 -3 -11 0 -18 7 -9 10 -8 11 6 5
10 -3 15 -9 12 -12z m-1952 -6 c22 -17 22 -38 -2 -53 -24 -15 -31 -8 -31 34 0
36 6 39 33 19z m2037 -12 c0 -2 -9 0 -20 6 -11 6 -20 13 -20 16 0 2 9 0 20 -6
11 -6 20 -13 20 -16z m-2680 12 c0 -2 -7 -7 -16 -10 -8 -3 -12 -2 -9 4 6 10
25 14 25 6z m1056 -8 c4 -7 3 -8 -4 -4 -7 4 -12 2 -12 -4 0 -6 -5 -8 -10 -5
-11 7 -4 25 10 25 5 0 12 -5 16 -12z m338 -22 c3 -13 2 -35 -3 -48 -9 -22 -10
-22 -25 14 -20 47 -20 59 1 51 12 -5 14 -3 8 7 -5 8 -4 11 2 7 6 -4 14 -18 17
-31z m716 9 c25 -14 53 -28 63 -31 9 -4 17 -10 17 -14 0 -4 13 -13 30 -20 23
-10 35 -9 60 1 16 8 30 17 30 21 0 10 57 -11 69 -26 8 -9 -13 -26 -81 -66
l-92 -53 -54 29 c-30 16 -68 39 -85 52 -17 12 -34 22 -38 22 -4 0 -24 10 -44
21 -28 17 -33 24 -24 35 13 16 49 19 49 4 0 -5 7 -7 15 -4 20 8 19 24 -2 24
-15 0 -14 2 3 15 25 19 32 19 84 -10z m538 -7 c-8 -4 -17 -2 -24 7 -6 8 -15
11 -19 7 -5 -4 -5 -2 -1 5 5 9 13 10 32 1 18 -8 21 -14 12 -20z m-118 18 c0
-2 -7 -7 -16 -10 -8 -3 -12 -2 -9 4 6 10 25 14 25 6z m-1330 -32 c0 -2 -9 0
-20 6 -11 6 -20 13 -20 16 0 2 9 0 20 -6 11 -6 20 -13 20 -16z m-1214 -9 c-14
-14 -16 -14 -16 -2 0 9 6 17 13 20 19 7 21 -1 3 -18z m95 8 c13 -16 12 -17 -3
-4 -10 7 -18 15 -18 17 0 8 8 3 21 -13z m679 -28 c0 -3 -18 4 -40 15 -22 11
-40 23 -40 25 0 3 18 -4 40 -15 22 -11 40 -23 40 -25z m1486 13 c-9 -12 -16
-19 -16 -15 0 11 24 47 28 42 2 -2 -3 -14 -12 -27z m-1114 -10 c18 -13 25 -24
21 -36 -3 -9 -3 -14 2 -10 12 11 35 -40 34 -76 -1 -28 -2 -27 -11 11 -6 30
-24 58 -57 92 -47 48 -42 56 11 19z m202 16 c17 -16 22 -79 7 -88 -14 -9 -76
38 -79 60 -2 13 5 24 20 32 31 15 34 14 52 -4z m201 -2 c-3 -3 -11 0 -18 7 -9
10 -8 11 6 5 10 -3 15 -9 12 -12z m-1395 -2 c8 -5 11 -10 5 -10 -5 0 -17 5
-25 10 -8 5 -10 10 -5 10 6 0 17 -5 25 -10z m63 -7 c-13 -8 -23 -20 -23 -25 0
-5 10 -2 22 6 12 9 27 16 33 16 9 0 -80 -60 -90 -60 -2 0 -1 8 2 17 5 13 2 15
-12 10 -15 -6 -16 -5 -5 8 11 14 14 13 27 -2 8 -10 12 -13 9 -8 -6 14 4 29 29
43 29 17 34 14 8 -5z m2387 7 c0 -5 7 -10 15 -10 8 0 15 -7 15 -16 0 -14 -1
-14 -16 0 -8 9 -20 16 -25 16 -5 0 -9 5 -9 10 0 6 5 10 10 10 6 0 10 -4 10
-10z m-2587 -15 c-3 -9 -8 -14 -10 -11 -3 3 -2 9 2 15 9 16 15 13 8 -4z m2725
-522 c-2 -271 -6 -493 -10 -493 -5 0 -9 -8 -9 -17 -1 -14 -2 -15 -5 -3 -3 9
-18 21 -34 27 -17 6 -30 16 -30 22 0 16 20 13 26 -4 4 -8 10 -15 15 -15 5 0 4
11 -1 25 -5 14 -7 33 -3 42 5 15 3 16 -8 6 -20 -19 -56 -16 -79 7 -19 19 -20
32 -18 208 0 103 3 172 5 153 3 -26 7 -31 14 -20 5 9 9 -51 9 -158 0 -98 4
-173 9 -173 5 0 18 -3 28 -6 17 -5 17 -5 1 6 -16 10 -18 29 -18 161 0 142 1
151 20 156 11 3 17 9 14 14 -3 5 -1 9 5 9 5 0 12 -6 15 -12 4 -7 4 2 1 21 -7
44 -14 51 -28 26 -11 -20 -13 -25 -16 -45 0 -5 -6 -10 -12 -10 -6 0 -9 9 -6
20 4 14 0 20 -11 21 -10 0 -6 5 9 10 39 14 50 76 19 101 -12 10 -17 18 -10 18
7 0 10 7 6 16 -3 9 2 27 13 40 16 20 21 22 31 9 9 -10 9 -18 0 -32 -9 -15 -10
-14 -4 7 6 24 5 24 -12 8 -14 -14 -15 -20 -5 -32 8 -9 17 -13 22 -11 4 3 7 -8
6 -24 -1 -16 -5 -27 -9 -24 -13 7 -8 -11 7 -31 13 -18 15 7 15 221 0 153 4
252 11 270 l11 28 10 -25 c6 -15 8 -213 6 -517z m-1986 505 c68 -35 109 -66
98 -73 -5 -3 -10 -1 -10 4 0 6 -7 11 -15 11 -7 0 -18 8 -24 17 -5 10 -13 14
-17 10 -5 -4 5 -19 21 -33 17 -15 22 -23 13 -20 -10 3 -17 2 -16 -2 1 -4 -3
-17 -10 -29 -6 -12 -9 -28 -6 -36 3 -8 1 -17 -3 -20 -12 -8 -11 56 1 65 6 4 6
11 -2 20 -6 7 -9 26 -8 41 2 15 -2 27 -8 27 -8 0 -11 -17 -10 -47 1 -27 3 -65
3 -85 1 -23 6 -38 14 -38 6 0 17 -11 23 -24 11 -23 10 -24 -19 -13 -28 9 -29
11 -11 19 16 7 16 7 -6 6 -14 -1 -35 4 -47 10 -21 12 -23 20 -23 102 0 79 2
90 18 91 14 0 14 2 -3 9 -11 5 -15 9 -8 9 7 1 32 -9 55 -21z m68 -14 c0 -2 -9
0 -20 6 -11 6 -20 13 -20 16 0 2 9 0 20 -6 11 -6 20 -13 20 -16z m252 17 c44
-16 107 -138 81 -154 -11 -7 -82 34 -83 48 -2 14 -31 45 -42 45 -5 0 -20 8
-32 17 l-23 18 26 17 c31 20 42 21 73 9z m-402 -88 c0 -49 -4 -83 -8 -77 -4 6
-14 13 -23 16 -25 9 -26 123 -2 137 10 6 21 11 26 11 4 0 7 -39 7 -87z m1927
79 c7 -4 14 -25 15 -45 2 -20 8 -37 13 -37 6 0 5 -4 -1 -8 -16 -10 -26 -146
-11 -161 20 -20 22 -12 19 64 -2 47 1 81 8 90 7 9 8 15 0 20 -18 11 -11 23 15
21 19 -1 23 -5 19 -20 -4 -12 -2 -16 5 -11 9 5 11 -21 10 -95 -1 -55 -4 -98
-7 -95 -3 3 -6 43 -6 88 1 79 1 79 -3 12 -2 -38 -8 -74 -13 -81 -7 -7 -3 -17
10 -29 11 -10 20 -23 20 -28 0 -5 -11 2 -25 17 -13 14 -28 26 -33 26 -4 0 -16
6 -26 13 -22 16 -33 77 -14 77 9 0 10 2 1 8 -11 7 -24 182 -13 182 3 0 11 -4
17 -8z m-1277 -63 c0 -4 -9 -9 -20 -12 -11 -3 -18 -2 -16 2 3 4 1 13 -5 21 -6
11 -9 8 -9 -12 0 -16 -8 -31 -18 -37 -17 -9 -19 -6 -17 19 4 76 0 72 45 48 22
-12 40 -25 40 -29z m516 29 c19 -23 19 -23 -2 -5 -11 9 -24 14 -29 10 -4 -5
-5 -2 -1 5 9 16 10 16 32 -10z m168 12 c-14 -14 -56 -22 -49 -9 4 5 10 7 14 5
4 -3 13 -1 21 5 20 12 26 11 14 -1z m651 -13 c15 -4 14 -5 -7 -6 -21 -1 -28 4
-28 17 0 11 3 13 8 6 4 -7 16 -14 27 -17z m-2054 4 c-10 -7 -10 -10 -1 -16 9
-6 6 -13 -11 -27 -13 -10 -17 -16 -8 -13 10 4 16 0 16 -10 0 -19 0 -19 -43 4
l-35 19 38 26 c21 14 42 26 48 26 5 0 4 -4 -4 -9z m806 -61 c-2 -57 -3 -59
-22 -46 -26 17 -30 58 -10 90 25 37 34 24 32 -44z m73 56 c-4 -4 -16 -4 -26 2
-16 9 -14 10 8 9 15 -1 23 -6 18 -11z m948 2 c19 -19 15 -26 -29 -54 -37 -23
-45 -24 -65 -13 -31 16 -74 -4 -73 -35 0 -21 1 -21 9 -1 8 19 9 19 9 -1 1 -12
-6 -25 -15 -28 -8 -3 -13 -2 -9 3 3 5 -1 16 -9 24 -13 12 -6 19 52 53 123 72
113 69 130 52z m-930 -65 c-5 -7 -7 -20 -4 -29 8 -20 46 -12 88 17 15 11 28
19 29 17 0 -2 2 -22 3 -45 2 -23 11 -54 21 -69 17 -26 17 -28 -1 -41 -25 -18
-28 -18 -110 28 -101 55 -104 60 -103 129 l2 58 43 -26 c32 -20 40 -29 32 -39z
m46 51 c3 -8 2 -12 -4 -9 -6 3 -10 10 -10 16 0 14 7 11 14 -7z m516 6 c8 -5
11 -10 5 -10 -5 0 -17 5 -25 10 -8 5 -10 10 -5 10 6 0 17 -5 25 -10z m-1985
-36 c-30 -28 -35 -29 -35 -9 0 8 7 15 15 15 9 0 18 7 21 15 4 8 10 12 16 9 5
-3 -3 -17 -17 -30z m935 10 c0 -2 -9 0 -20 6 -11 6 -20 13 -20 16 0 2 9 0 20
-6 11 -6 20 -13 20 -16z m-1000 6 c0 -5 -4 -10 -10 -10 -5 0 -10 5 -10 10 0 6
5 10 10 10 6 0 10 -4 10 -10z m1717 -19 c0 -11 -5 -18 -9 -15 -4 3 -5 11 -1
19 7 21 12 19 10 -4z m140 -3 c-3 -8 -6 -5 -6 6 -1 11 2 17 5 13 3 -3 4 -12 1
-19z m186 1 c-8 -8 -13 -7 -18 2 -5 8 -4 10 3 5 7 -4 12 -2 12 5 0 7 3 9 7 6
4 -4 2 -12 -4 -18z m-1859 -4 c-4 -8 -8 -15 -10 -15 -2 0 -4 7 -4 15 0 8 4 15
10 15 5 0 7 -7 4 -15z m704 -11 c3 -18 2 -18 -8 -1 -6 9 -16 14 -22 11 -7 -4
-8 -2 -4 5 11 17 30 8 34 -15z m42 22 c0 -2 -7 -9 -15 -16 -13 -11 -14 -10 -9
4 5 14 24 23 24 12z m-912 -31 c-3 -3 -9 2 -12 12 -6 14 -5 15 5 6 7 -7 10
-15 7 -18z m77 15 c-3 -5 -11 -10 -16 -10 -6 0 -7 5 -4 10 3 6 11 10 16 10 6
0 7 -4 4 -10z m1583 -63 c0 -27 -4 -45 -8 -40 -10 10 -19 100 -12 108 12 11
21 -22 20 -68z m332 63 c0 -5 -4 -10 -8 -10 -5 0 -17 -7 -28 -16 -19 -15 -19
-16 1 -10 17 5 16 3 -5 -14 -14 -11 -29 -20 -34 -20 -6 0 -1 7 10 16 18 15 18
15 -3 9 -35 -10 -27 9 15 33 41 24 52 27 52 12z m103 -11 c-8 -8 -13 -7 -18 2
-5 8 -4 10 3 5 7 -4 12 -2 12 5 0 7 3 9 7 6 4 -4 2 -12 -4 -18z m322 -19 c0
-23 -4 -38 -10 -36 -5 2 -9 8 -8 14 2 6 -4 9 -12 6 -7 -3 -22 -1 -31 4 -15 8
-12 13 22 30 21 12 39 21 39 22 0 0 0 -18 0 -40z m-1105 20 c0 -5 -5 -10 -11
-10 -5 0 -7 5 -4 10 3 6 8 10 11 10 2 0 4 -4 4 -10z m564 -20 c-6 -6 -10 -3
-10 10 0 13 4 16 10 10 7 -7 7 -13 0 -20z m-1756 11 c10 -6 9 -10 -7 -14 -12
-3 -19 -1 -15 4 3 5 1 9 -5 9 -5 0 -13 -4 -16 -10 -3 -5 -12 -10 -18 -10 -7 0
-3 7 7 15 22 17 35 18 54 6z m347 -18 c-9 -8 -18 -13 -21 -10 -8 8 19 36 29
30 4 -2 0 -11 -8 -20z m397 0 c32 -34 58 -85 58 -113 0 -14 -6 -20 -23 -20
-13 0 -28 -5 -35 -12 -14 -14 -40 10 -71 68 -25 46 -26 67 -5 88 23 23 47 20
76 -11z m448 -15 c0 -4 -11 -3 -25 4 -13 6 -22 15 -19 19 5 9 44 -11 44 -23z
m395 -13 c0 -22 -5 -40 -12 -42 -9 -3 -13 9 -13 42 0 33 4 45 13 43 7 -3 12
-21 12 -43z m309 30 c-7 -18 -43 -39 -51 -31 -3 3 3 9 13 13 10 3 23 12 27 20
11 18 18 17 11 -2z m-1846 -8 c7 -8 7 -18 2 -27 -8 -12 -10 -11 -10 7 0 12 -6
24 -12 26 -8 4 -9 6 -2 6 6 1 16 -5 22 -12z m249 -6 c-1 -11 -17 -29 -38 -40
-31 -18 -38 -19 -48 -7 -9 11 -3 19 31 39 52 32 57 32 55 8z m1629 -18 c-62
-31 -83 -24 -25 8 24 14 50 23 58 21 8 -3 -5 -15 -33 -29z m-1900 -1 c-4 -3
-14 2 -24 12 -16 18 -16 18 6 6 13 -6 21 -14 18 -18z m2237 -29 c-13 -10 -14
-13 -2 -14 10 0 10 -2 1 -6 -13 -5 -7 -23 9 -23 6 0 7 5 4 10 -3 6 -2 10 4 10
5 0 13 -4 16 -10 3 -5 1 -10 -6 -10 -8 0 -7 -5 2 -17 11 -14 7 -13 -21 4 -19
11 -49 28 -67 38 -27 16 -29 20 -17 32 8 8 20 11 26 7 10 -6 11 -4 1 7 -25 26
-12 29 27 7 36 -21 38 -24 23 -35z m-2583 36 c0 -5 5 -7 12 -3 7 4 8 3 4 -5
-4 -6 -26 -21 -49 -33 -33 -16 -39 -17 -28 -4 9 11 10 16 2 16 -7 0 -9 5 -6
10 9 15 38 12 29 -2 -4 -8 -3 -10 2 -5 5 5 10 13 10 18 3 17 4 19 14 19 6 0
10 -5 10 -11z m183 5 c-7 -3 -9 -12 -6 -20 3 -8 0 -14 -6 -14 -12 0 -15 23 -4
33 3 4 11 7 17 6 7 0 6 -2 -1 -5z m43 -9 c-1 -8 -5 -17 -8 -21 -5 -4 -4 16 1
34 3 9 9 -1 7 -13z m979 5 c3 -5 1 -10 -4 -10 -6 0 -11 5 -11 10 0 6 2 10 4
10 3 0 8 -4 11 -10z m749 -11 c-8 -14 -24 -10 -24 6 0 9 6 12 15 9 8 -4 12
-10 9 -15z m76 11 c0 -5 -5 -10 -11 -10 -5 0 -7 5 -4 10 3 6 8 10 11 10 2 0 4
-4 4 -10z m-1618 -9 c8 12 9 12 6 0 -4 -15 -38 -25 -38 -12 0 14 15 22 19 10
2 -8 6 -7 13 2z m815 -23 c-3 -7 -5 -2 -5 12 0 14 2 19 5 13 2 -7 2 -19 0 -25z
m61 -2 c-2 -1 -10 -7 -18 -13 -12 -9 -15 -6 -16 18 -1 28 0 29 17 13 11 -10
18 -18 17 -18z m552 -45 c0 -12 -28 36 -34 59 -4 14 2 8 14 -14 11 -22 20 -42
20 -45z m-1019 59 c22 -12 26 -68 7 -89 -10 -11 -10 -14 0 -18 19 -7 14 -30
-8 -36 -22 -6 -28 8 -7 16 9 4 9 8 1 14 -10 7 -25 123 -16 123 2 0 12 -5 23
-10z m749 0 c8 -5 11 -10 5 -10 -5 0 -17 5 -25 10 -8 5 -10 10 -5 10 6 0 17
-5 25 -10z m720 -29 c0 -34 -5 -42 -34 -60 -18 -12 -36 -21 -39 -21 -3 0 -7
17 -9 38 -3 34 0 39 37 59 22 12 41 22 43 23 1 0 2 -18 2 -39z m-1104 10 c0
-11 -4 -17 -8 -15 -4 3 -8 0 -8 -7 0 -7 -3 -10 -6 -7 -5 5 12 48 19 48 2 0 3
-9 3 -19z m802 7 c19 -19 14 -34 -15 -47 -21 -10 -28 -9 -34 1 -13 20 -11 29
9 44 21 17 25 17 40 2z m172 8 c0 -2 -3 -11 -6 -20 -5 -12 -10 -13 -25 -5 -23
12 -16 29 12 29 10 0 19 -2 19 -4z m-2084 -37 c30 -17 54 -34 54 -38 0 -4 -18
-16 -40 -26 -47 -21 -80 -47 -80 -63 0 -11 -50 -42 -67 -42 -4 0 -8 34 -8 75
l0 75 40 25 c22 13 42 25 44 25 2 0 28 -14 57 -31z m541 -21 c-2 -51 -2 -52
-57 -84 -30 -19 -61 -31 -68 -29 -7 3 -10 1 -7 -4 3 -5 1 -12 -5 -16 -6 -4
-10 5 -10 19 0 14 6 26 13 27 10 0 10 2 0 6 -23 9 -14 28 22 47 19 11 35 24
35 31 0 8 63 53 77 55 1 0 1 -23 0 -52z m597 36 c3 -8 2 -12 -4 -9 -6 3 -10
10 -10 16 0 14 7 11 14 -7z m216 6 c0 -5 -4 -10 -10 -10 -5 0 -10 5 -10 10 0
6 5 10 10 10 6 0 10 -4 10 -10z m629 -6 c-11 -13 -11 -15 2 -13 20 3 50 -12
43 -22 -3 -5 -22 -18 -43 -29 -33 -16 -41 -17 -57 -6 -17 13 -15 15 17 31 19
11 28 20 21 23 -10 3 -8 8 5 18 24 18 28 17 12 -2z m412 5 c11 -5 17 -14 14
-19 -3 -6 0 -8 7 -5 19 7 121 -57 124 -78 2 -18 -14 -11 -108 47 -23 14 -58
-18 -58 -54 0 -22 9 -32 45 -51 25 -13 45 -26 45 -29 0 -3 -26 -20 -57 -37
l-58 -32 2 97 c1 53 2 114 2 135 1 39 9 44 42 26z m149 1 c0 -5 -8 -10 -17
-10 -15 0 -16 2 -3 10 19 12 20 12 20 0z m70 -4 c-7 -7 -13 -7 -20 0 -6 6 -3
10 10 10 13 0 16 -4 10 -10z m-2182 -21 c-3 -3 -9 2 -12 12 -6 14 -5 15 5 6 7
-7 10 -15 7 -18z m368 -1 c1 -9 0 -13 -4 -10 -3 4 -7 14 -8 22 -1 9 0 13 4 10
3 -4 7 -14 8 -22z m634 16 c0 -5 -2 -10 -4 -10 -3 0 -8 5 -11 10 -3 6 -1 10 4
10 6 0 11 -4 11 -10z m-1610 -10 c0 -5 -2 -10 -4 -10 -3 0 -8 5 -11 10 -3 6
-1 10 4 10 6 0 11 -4 11 -10z m275 0 c3 -5 1 -10 -5 -10 -7 0 -5 -7 4 -16 22
-21 20 -27 -4 -12 -11 7 -20 21 -20 30 0 20 15 24 25 8z m236 -7 c13 -16 12
-17 -3 -4 -10 7 -18 15 -18 17 0 8 8 3 21 -13z m36 -5 c-3 -8 -6 -5 -6 6 -1
11 2 17 5 13 3 -3 4 -12 1 -19z m923 3 c0 -10 -7 -21 -15 -25 -17 -6 -21 9 -5
19 6 4 8 11 5 16 -4 5 -1 9 4 9 6 0 11 -9 11 -19z m1035 9 c3 -5 1 -10 -4 -10
-6 0 -11 5 -11 10 0 6 2 10 4 10 3 0 8 -4 11 -10z m-1700 -10 c3 -5 1 -10 -4
-10 -6 0 -11 5 -11 10 0 6 2 10 4 10 3 0 8 -4 11 -10z m-865 -53 c0 -10 -5
-15 -10 -12 -6 4 -7 11 -4 17 4 6 2 8 -4 4 -14 -9 -25 11 -17 32 6 16 8 15 21
-2 8 -11 14 -28 14 -39z m30 43 c0 -5 -5 -10 -11 -10 -5 0 -7 5 -4 10 3 6 8
10 11 10 2 0 4 -4 4 -10z m607 -22 c-3 -7 -5 -2 -5 12 0 14 2 19 5 13 2 -7 2
-19 0 -25z m824 18 c5 3 9 0 9 -6 0 -15 -23 -7 -26 8 -1 7 0 8 3 2 2 -5 9 -8
14 -4z m374 4 c3 -6 -1 -7 -9 -4 -18 7 -21 14 -7 14 6 0 13 -4 16 -10z m232
-9 c13 -22 8 -31 -19 -31 -19 0 -24 15 -8 25 6 4 8 11 5 16 -4 5 -2 9 2 9 5 0
14 -9 20 -19z m243 -10 c0 -24 -11 -38 -57 -75 -60 -47 -75 -46 -64 5 4 22 20
38 61 63 30 19 56 35 58 35 1 1 2 -12 2 -28z m-885 -20 c-10 -16 -25 -3 -25
22 0 20 1 20 16 5 9 -9 13 -21 9 -27z m1136 16 c-10 -9 -11 -8 -5 6 3 10 9 15
12 12 3 -3 0 -11 -7 -18z m259 16 c0 -17 -19 -37 -27 -29 -4 5 -2 11 5 13 6 3
10 9 6 14 -3 5 0 9 5 9 6 0 11 -3 11 -7z m48 -18 c-3 -3 -9 2 -12 12 -6 14 -5
15 5 6 7 -7 10 -15 7 -18z m-1198 -20 c0 -19 -2 -35 -4 -35 -2 0 -6 16 -8 35
-2 19 0 35 4 35 4 0 8 -16 8 -35z m329 4 c-7 -4 -16 -6 -20 -3 -4 2 -9 -2 -12
-8 -2 -7 -8 -10 -12 -5 -12 10 26 36 43 29 11 -4 11 -6 1 -13z m-605 -41 c12
-8 -20 -37 -41 -38 -18 0 -16 17 2 24 8 3 15 11 15 17 0 8 -4 8 -15 -1 -8 -6
-19 -9 -25 -5 -16 10 -12 33 7 44 13 7 21 4 32 -12 8 -12 20 -25 25 -29z m184
-92 c-4 -6 -7 26 -6 70 l1 79 7 -70 c3 -38 3 -74 -2 -79z m1354 115 c-5 -3
-11 -13 -14 -21 -3 -8 -6 0 -5 17 0 27 3 31 14 21 8 -6 10 -14 5 -17z m-2591
-26 c5 4 9 -10 9 -30 0 -33 -2 -35 -20 -25 -23 12 -27 25 -5 16 9 -3 15 0 15
9 0 9 -6 12 -17 8 -10 -3 -15 -3 -11 1 4 5 3 19 -2 31 -6 16 -5 25 3 28 7 2
13 -7 15 -20 2 -13 8 -21 13 -18z m1580 28 c13 -17 13 -17 -6 -3 -11 8 -22 16
-24 17 -2 2 0 3 6 3 6 0 17 -8 24 -17z m509 12 c0 -2 -10 -9 -22 -15 -22 -11
-22 -10 -4 4 21 17 26 19 26 11z m64 -10 c11 -8 15 -15 9 -15 -5 0 -26 -11
-45 -24 -30 -20 -37 -21 -53 -10 -10 8 -17 15 -14 17 14 11 75 47 79 47 3 -1
14 -7 24 -15z m-474 -3 c0 -10 -41 -35 -47 -28 -9 8 17 36 33 36 8 0 14 -3 14
-8z m90 -7 c-7 -9 -15 -13 -17 -11 -7 7 7 26 19 26 6 0 6 -6 -2 -15z m457 -17
c-3 -7 -5 -2 -5 12 0 14 2 19 5 13 2 -7 2 -19 0 -25z m171 6 c33 -20 41 -28
31 -35 -8 -5 -23 -6 -34 -3 -15 4 -16 3 -6 -4 9 -7 10 -12 2 -16 -14 -9 -83
32 -75 45 3 5 12 9 20 9 9 0 12 -5 8 -12 -5 -7 -3 -8 6 -3 10 6 10 11 -3 20
-9 7 -14 15 -10 18 10 10 12 9 61 -19z m-680 -15 c-6 -18 -8 -54 -4 -86 4 -36
3 -52 -4 -48 -11 7 -14 148 -3 158 16 16 21 5 11 -24z m98 16 c-1 -8 -5 -17
-8 -21 -5 -4 -4 16 1 34 3 9 9 -1 7 -13z m714 5 c0 -5 -2 -10 -4 -10 -3 0 -8
5 -11 10 -3 6 -1 10 4 10 6 0 11 -4 11 -10z m-2476 -9 c3 -5 -1 -14 -9 -21
-11 -9 -14 -8 -12 9 1 22 12 28 21 12z m413 -13 c-3 -8 -6 -5 -6 6 -1 11 2 17
5 13 3 -3 4 -12 1 -19z m-517 -8 c0 -11 -2 -20 -4 -20 -2 0 -6 9 -9 20 -3 11
-1 20 4 20 5 0 9 -9 9 -20z m1013 6 c6 -15 -1 -26 -14 -26 -5 0 -5 7 -2 17 5
12 3 14 -7 8 -9 -5 -11 -4 -6 3 10 16 23 15 29 -2z m166 -141 l0 -154 -27 -19
c-50 -36 -111 -62 -129 -56 -14 5 -15 4 -4 -4 11 -8 10 -12 -7 -21 -20 -11
-20 -8 -20 119 -1 116 1 128 16 123 13 -4 12 -2 -3 10 l-20 16 20 15 c11 9 26
13 33 11 7 -3 10 0 7 5 -3 6 0 13 9 16 8 3 13 11 10 17 -3 9 44 41 113 76 1 1
2 -69 2 -154z m548 -11 c-2 -3 -12 -2 -21 2 -24 9 -23 132 2 150 16 12 17 7
20 -68 2 -44 1 -82 -1 -84z m114 106 c5 0 9 -5 9 -10 0 -6 -18 0 -39 12 l-40
23 27 17 27 18 3 -30 c2 -17 7 -30 13 -30z m-1866 40 c3 -6 -1 -7 -9 -4 -18 7
-21 14 -7 14 6 0 13 -4 16 -10z m235 -38 c3 -2 -5 -1 -17 2 -14 5 -23 3 -23
-3 0 -6 6 -11 13 -11 6 0 -1 -7 -17 -15 -34 -18 -39 -19 -30 -4 3 6 0 15 -7
20 -12 8 -12 10 0 18 7 5 11 14 7 20 -4 6 -14 3 -27 -10 -11 -11 -24 -18 -27
-14 -4 4 3 15 16 25 23 19 24 19 65 -2 23 -12 44 -24 47 -26z m276 10 c-4 -3
-12 0 -19 7 -9 9 -9 14 3 21 11 7 16 5 18 -6 2 -9 1 -18 -2 -22z m414 29 c0
-6 -4 -12 -8 -15 -5 -3 -9 1 -9 9 0 8 4 15 9 15 4 0 8 -4 8 -9z m1330 -1 c0
-5 -5 -10 -11 -10 -6 0 -23 -9 -39 -20 -15 -11 -30 -17 -34 -13 -3 3 11 17 32
29 41 26 52 29 52 14z m-353 -22 c0 -13 -1 -17 -4 -10 -3 6 -9 10 -14 6 -5 -3
-9 -1 -9 5 0 5 6 12 13 14 6 3 12 6 12 6 1 1 1 -9 2 -21z m107 6 c3 -8 2 -12
-4 -9 -6 3 -10 10 -10 16 0 14 7 11 14 -7z m676 12 c0 -3 -4 -8 -10 -11 -5 -3
-10 -1 -10 4 0 6 5 11 10 11 6 0 10 -2 10 -4z m-1856 -17 c-2 -4 0 -10 6 -14
5 -3 10 -1 10 5 0 6 5 8 11 4 8 -5 7 -10 -4 -16 -12 -6 -22 -3 -36 11 -19 19
-19 20 -1 18 10 -1 17 -4 14 -8z m1724 -16 c5 -30 -21 -47 -50 -32 l-23 12 23
10 c12 6 22 16 22 24 0 22 25 10 28 -14z m-1591 1 c2 -6 -8 -16 -22 -22 -15
-7 -24 -8 -21 -3 4 5 0 12 -6 14 -10 4 -9 8 2 16 18 13 42 10 47 -5z m1023 11
c0 -2 -20 -16 -45 -31 -25 -14 -45 -30 -45 -35 0 -5 -4 -9 -9 -9 -23 0 -1 35
26 42 17 4 36 15 43 23 12 14 30 20 30 10z m130 -25 c0 -4 -27 -23 -61 -43
l-60 -36 -30 18 c-17 10 -29 23 -28 27 2 5 33 21 69 35 51 21 70 24 87 16 13
-6 23 -13 23 -17z m-1785 10 c3 -5 1 -10 -4 -10 -6 0 -11 5 -11 10 0 6 2 10 4
10 3 0 8 -4 11 -10z m165 -10 c22 -16 28 -27 25 -48 -2 -15 -4 -33 -4 -39 -2
-30 -21 -10 -21 21 0 19 -9 45 -21 60 -25 31 -17 33 21 6z m233 13 c-7 -2 -14
-17 -14 -31 -1 -18 -3 -21 -6 -9 -6 24 3 47 19 46 10 0 10 -2 1 -6z m322 -3
c-3 -5 -10 -10 -16 -10 -5 0 -9 5 -9 10 0 6 7 10 16 10 8 0 12 -4 9 -10z m785
-16 c0 -2 -9 0 -20 6 -11 6 -20 13 -20 16 0 2 9 0 20 -6 11 -6 20 -13 20 -16z
m410 12 c0 -7 -8 -16 -17 -19 -10 -2 -26 -8 -35 -12 -28 -11 -21 8 10 27 34
21 42 21 42 4z m440 -5 c0 -16 -14 -20 -27 -10 -19 17 -16 28 7 22 11 -3 20
-9 20 -12z m-2780 -10 c0 -20 -25 -35 -42 -24 -7 3 -8 1 -4 -5 3 -6 -3 -16
-14 -22 -13 -7 -20 -7 -20 0 0 5 6 10 13 10 8 0 7 3 -3 10 -11 7 -9 11 12 19
14 5 29 15 33 20 10 17 25 13 25 -8z m2695 1 c-3 -3 -11 0 -18 7 -9 10 -8 11
6 5 10 -3 15 -9 12 -12z m-2460 -3 c4 -6 5 -12 2 -15 -7 -7 -37 7 -37 17 0 13
27 11 35 -2z m145 -4 c9 -10 9 -15 1 -15 -6 0 -11 5 -11 10 0 6 -4 10 -10 10
-5 0 -7 -6 -4 -14 8 -21 -35 -43 -48 -25 -8 11 -9 10 -4 -3 7 -23 -9 -32 -24
-14 -12 15 -4 22 55 54 26 15 30 15 45 -3z m1119 -42 l-2 -58 -7 50 c-7 47 -5
65 6 65 2 0 3 -26 3 -57z m881 31 c0 -8 -4 -14 -8 -14 -4 0 -8 9 -8 19 0 11 4
17 8 15 4 -3 8 -12 8 -20z m-1822 4 c21 -21 13 -33 -50 -67 -35 -19 -75 -43
-90 -53 -16 -11 -28 -16 -28 -11 0 4 10 14 21 21 25 16 12 36 -15 26 -12 -5
-14 -9 -6 -14 8 -5 7 -9 -5 -13 -9 -4 -13 -3 -10 3 3 6 0 10 -7 10 -7 0 10 13
37 28 28 15 52 24 53 20 7 -15 24 -8 18 7 -4 12 -2 13 13 3 13 -8 23 -8 37 1
17 11 17 12 1 7 -32 -10 -41 6 -16 25 29 22 31 23 47 7z m412 2 c-20 -13 -33
-13 -25 0 3 6 14 10 23 10 15 0 15 -2 2 -10z m1276 -1 c3 -6 -1 -18 -10 -27
-15 -15 -16 -14 -16 11 0 27 13 36 26 16z m-2092 -14 c-4 -8 -8 -15 -10 -15
-2 0 -4 7 -4 15 0 8 4 15 10 15 5 0 7 -7 4 -15z m2166 7 c0 -10 -71 -45 -77
-38 -4 4 39 29 75 45 1 1 2 -3 2 -7z m77 -14 c-3 -8 -6 -5 -6 6 -1 11 2 17 5
13 3 -3 4 -12 1 -19z m173 18 c0 -2 -8 -10 -17 -17 -16 -13 -17 -12 -4 4 13
16 21 21 21 13z m-2390 -21 c0 -8 -4 -15 -10 -15 -5 0 -7 7 -4 15 4 8 8 15 10
15 2 0 4 -7 4 -15z m240 11 c0 -2 -7 -7 -16 -10 -8 -3 -12 -2 -9 4 6 10 25 14
25 6z m0 -24 c-24 -14 -49 -27 -55 -28 -5 -1 -14 -3 -20 -5 -5 -2 -10 1 -10 6
0 6 6 9 13 7 8 -2 11 1 8 6 -3 6 2 8 11 6 10 -3 32 4 48 15 17 11 35 20 40 20
6 0 -10 -12 -35 -27z m560 18 c-20 -13 -33 -13 -25 0 3 6 14 10 23 10 15 0 15
-2 2 -10z m1785 -1 c11 -17 -1 -21 -15 -4 -8 9 -8 15 -2 15 6 0 14 -5 17 -11z
m-1710 -9 c3 -5 2 -10 -4 -10 -5 0 -13 5 -16 10 -3 6 -2 10 4 10 5 0 13 -4 16
-10z m1132 -11 c-1 -18 -59 -59 -82 -59 -18 0 5 38 35 57 43 28 49 28 47 2z
m512 5 c13 -12 -8 -10 -29 2 l-25 15 25 -7 c14 -3 27 -8 29 -10z m-2724 -111
c-15 -16 -33 -41 -40 -57 -11 -25 -12 -20 -11 54 l1 83 35 18 35 19 3 -45 c3
-37 -1 -49 -23 -72z m730 99 c-3 -3 -11 0 -18 7 -9 10 -8 11 6 5 10 -3 15 -9
12 -12z m1635 3 c0 -12 -47 -45 -65 -45 -16 0 -1 28 23 42 34 22 42 22 42 3z
m270 11 c0 -2 -7 -9 -15 -16 -13 -11 -14 -10 -9 4 5 14 24 23 24 12z m-2758
-41 c6 -14 8 -28 5 -31 -10 -11 -37 17 -37 37 0 27 18 23 32 -6z m2691 -4 l49
-28 -95 -57 -95 -56 -84 47 c-46 27 -96 54 -111 62 -38 20 -25 27 21 12 34
-12 43 -11 78 6 30 15 45 17 66 10 21 -8 33 -6 60 11 43 28 53 27 111 -7z
m119 14 c0 -5 -5 -10 -12 -11 -7 -2 -6 -1 1 3 8 4 7 8 -2 15 -11 8 -11 9 -1 6
8 -2 14 -8 14 -13z m121 0 c4 -8 3 -16 -1 -19 -4 -3 -9 4 -9 15 -2 23 3 25 10
4z m-2469 -37 c70 -35 211 -171 202 -195 -3 -8 -2 -11 4 -8 13 8 43 -41 34
-56 -4 -8 -3 -9 5 -5 11 7 66 -96 75 -140 3 -11 10 -32 16 -49 15 -38 23 -222
9 -208 -6 6 -12 35 -14 64 -2 30 -11 76 -19 102 -13 45 -13 48 2 43 16 -6 16
-5 1 7 -22 16 -51 86 -42 100 3 5 2 7 -3 4 -6 -3 -23 18 -38 46 -86 155 -247
292 -382 327 -34 8 -30 9 25 4 43 -4 84 -15 125 -36z m248 30 c-13 -6 -21 -17
-18 -25 6 -13 -47 -47 -57 -36 -4 3 -14 2 -24 -1 -10 -4 -20 -7 -22 -6 -2 1
-7 -4 -11 -10 -5 -8 -10 -9 -14 -2 -3 6 6 15 22 21 15 6 47 24 72 40 25 16 52
29 60 30 8 0 5 -5 -8 -11z m458 8 c0 -3 -4 -8 -10 -11 -5 -3 -10 -1 -10 4 0 6
5 11 10 11 6 0 10 -2 10 -4z m-355 -26 c3 -5 1 -10 -4 -10 -6 0 -11 5 -11 10
0 6 2 10 4 10 3 0 8 -4 11 -10z m160 1 c7 -12 -12 -24 -25 -16 -11 7 -4 25 10
25 5 0 11 -4 15 -9z m588 -16 c-7 -21 -12 -19 -10 4 0 11 5 18 9 15 4 -3 5
-11 1 -19z m-1174 -10 c82 -39 155 -99 232 -195 55 -67 94 -145 124 -242 26
-89 43 -228 27 -228 -5 0 -8 10 -7 23 1 12 -1 27 -5 32 -4 6 -13 39 -19 75
-17 87 -62 192 -119 278 -112 168 -225 251 -355 260 -81 6 -71 22 13 22 38 0
72 -8 109 -25z m389 -12 c-16 -19 -38 -15 -38 6 0 23 20 32 36 17 8 -8 9 -15
2 -23z m1399 29 c9 -6 3 -13 -18 -26 -36 -21 -62 -9 -39 19 13 16 38 19 57 7z
m633 -43 c0 -7 -6 -4 -15 7 -19 25 -19 40 0 20 8 -8 15 -20 15 -27z m-1780 26
c0 -2 -9 -9 -20 -15 -24 -13 -50 -2 -29 11 15 9 49 12 49 4z m1055 -43 c0 -21
-10 -33 -42 -54 -24 -15 -48 -26 -55 -24 -7 1 -10 1 -6 -1 4 -3 2 -15 -4 -29
-16 -34 -25 -13 -18 43 5 45 7 48 60 74 30 15 57 25 60 22 3 -3 5 -17 5 -31z
m695 4 c0 -7 -35 -32 -77 -57 -102 -58 -110 -61 -117 -42 -4 11 -2 14 9 9 8
-3 14 0 12 6 -1 6 4 13 12 16 8 3 11 0 7 -7 -5 -7 -1 -9 9 -4 13 5 14 7 3 14
-10 7 -8 9 7 10 11 0 14 3 7 6 -7 3 -24 -3 -38 -12 -14 -9 -30 -15 -35 -13 -6
2 8 14 31 27 31 17 44 20 55 11 10 -9 18 -7 34 7 12 10 29 18 38 18 9 0 17 8
19 17 1 11 -3 15 -13 11 -12 -5 -12 -7 -1 -15 9 -7 8 -8 -6 -4 -12 4 -27 -1
-41 -14 -14 -13 -25 -18 -29 -11 -10 16 86 62 102 49 6 -6 12 -16 12 -22z
m-2076 12 c-5 -8 -2 -9 9 -5 27 10 20 -9 -8 -21 -28 -13 -43 1 -25 23 15 18
34 20 24 3z m126 -8 c37 -27 30 -59 -18 -83 -50 -24 -72 -15 -72 32 0 29 6 39
28 53 35 21 30 21 62 -2z m216 -15 c-3 -8 -12 -15 -21 -15 -14 0 -14 3 2 24
18 24 30 18 19 -9z m1158 20 c-10 -8 -23 -14 -29 -14 -5 0 -1 6 9 14 11 8 24
15 30 15 5 0 1 -7 -10 -15z m82 -1 c18 -15 18 -15 -3 -5 -32 16 -42 13 -13 -3
14 -8 28 -12 33 -9 5 3 16 -1 25 -9 9 -8 32 -20 50 -28 17 -7 32 -16 32 -19 0
-4 -14 -17 -30 -30 l-31 -22 -80 47 -80 46 33 24 c40 28 39 28 64 8z m-778
-13 c3 -8 -1 -12 -9 -9 -7 2 -15 10 -17 17 -3 8 1 12 9 9 7 -2 15 -10 17 -17z
m142 -13 c0 -18 -2 -20 -9 -8 -6 8 -7 18 -5 22 9 14 14 9 14 -14z m-1002 -23
c-3 -3 -9 2 -12 12 -6 14 -5 15 5 6 7 -7 10 -15 7 -18z m1512 10 c-13 -16 -40
-20 -40 -7 0 14 12 22 33 22 16 0 17 -3 7 -15z m-1433 -12 c-1 -10 -6 -23 -9
-29 -8 -12 -6 -34 5 -51 5 -7 6 -13 2 -13 -8 0 -47 23 -63 38 -7 6 -9 12 -3
12 5 0 12 8 16 19 4 14 30 34 52 40 2 1 2 -7 0 -16z m176 -13 c3 -13 0 -20 -9
-20 -8 0 -14 -6 -14 -14 0 -8 -5 -18 -12 -22 -7 -4 -8 -3 -4 4 4 7 3 12 -2 12
-17 0 -22 -13 -9 -29 10 -14 10 -14 -3 -4 -12 9 -25 7 -63 -11 -26 -13 -49
-20 -52 -17 -6 10 8 26 25 29 22 4 64 25 72 37 4 5 15 10 25 10 10 0 19 6 19
13 1 6 2 19 3 28 1 20 17 10 24 -16z m67 6 c14 -18 14 -18 -7 -6 -12 8 -19 18
-16 23 3 4 6 7 7 5 1 -2 8 -12 16 -22z m641 -3 c7 -20 6 -30 -3 -40 -11 -11
-14 -10 -15 5 -1 9 -4 27 -8 40 -11 32 13 28 26 -5z m1166 -250 c-3 -2 -18 4
-34 13 -28 17 -31 17 -56 -2 -30 -22 -38 -80 -12 -90 8 -4 12 -10 9 -15 -3 -5
1 -7 8 -4 7 3 26 -3 41 -13 l28 -19 -80 -46 c-44 -26 -83 -47 -85 -47 -3 0 -5
88 -5 195 l0 195 29 15 c35 18 43 19 34 3 -4 -8 -3 -10 2 -5 5 5 9 13 9 19 0
6 22 23 50 37 27 14 52 31 55 36 3 6 6 -52 8 -129 1 -76 1 -141 -1 -143z
m-1214 152 c-11 -36 -23 20 -16 73 l7 47 8 -50 c4 -27 5 -59 1 -70z m912 105
c3 -6 -1 -7 -9 -4 -18 7 -21 14 -7 14 6 0 13 -4 16 -10z m-827 -25 c-3 -3 -9
2 -12 12 -6 14 -5 15 5 6 7 -7 10 -15 7 -18z m-678 -15 c0 -6 -4 -10 -10 -10
-5 0 -13 -1 -17 -2 -3 -2 -7 7 -8 19 -1 18 1 20 17 12 10 -5 18 -14 18 -19z
m1124 22 c3 -5 -12 -19 -34 -31 -47 -26 -63 -11 -17 18 36 23 43 25 51 13z
m66 -25 c0 -17 -17 -36 -64 -69 l-64 -46 -4 38 c-2 21 -2 37 0 35 2 -1 27 12
55 31 61 40 77 42 77 11z m-650 -47 c0 -41 -4 -60 -12 -60 -8 0 -12 12 -12 30
1 17 2 44 3 60 2 57 21 30 21 -30z m960 55 c0 -7 -63 -45 -74 -45 -5 0 6 11
25 24 34 24 49 31 49 21z m-280 -9 c0 -3 -4 -8 -10 -11 -5 -3 -10 -1 -10 4 0
6 5 11 10 11 6 0 10 -2 10 -4z m-2133 -28 c-3 -8 -6 -5 -6 6 -1 11 2 17 5 13
3 -3 4 -12 1 -19z m1645 -90 c2 -53 0 -79 -8 -82 -9 -3 -12 21 -12 87 1 51 4
97 7 102 7 12 9 -4 13 -107z m866 84 c2 -28 0 -27 -16 4 -8 16 -8 21 1 21 7 0
14 -12 15 -25z m239 -94 c-2 -24 -4 -5 -4 42 0 47 2 66 4 43 2 -24 2 -62 0
-85z m-2392 86 c13 -20 14 -29 5 -38 -14 -13 -40 17 -40 46 0 26 15 22 35 -8z
m707 -38 c15 -9 13 -12 -14 -29 -38 -23 -95 -28 -103 -9 -3 7 -5 27 -5 44 0
28 2 30 28 24 25 -6 26 -5 8 9 -10 8 -23 12 -29 8 -6 -3 -7 -1 -3 6 7 11 31 1
118 -53z m654 37 c-6 -6 -36 9 -36 18 0 5 9 4 20 -3 10 -7 18 -14 16 -15z
m419 17 c-3 -5 -12 -10 -18 -10 -7 0 -6 4 3 10 19 12 23 12 15 0z m309 1 c3
-5 -1 -14 -9 -21 -12 -10 -15 -10 -15 1 0 11 -2 11 -9 -1 -6 -8 -8 -17 -6 -20
2 -4 -9 -4 -26 -2 l-29 4 27 24 c29 25 58 31 67 15z m-854 -92 c0 -58 -4 -88
-10 -84 -6 4 -8 10 -6 14 3 4 -15 18 -40 31 -24 14 -44 27 -44 30 0 3 13 11
29 17 22 8 28 16 26 34 -1 13 0 16 2 7 7 -28 23 -21 30 12 3 17 7 30 9 30 2 0
4 -41 4 -91z m-680 61 c-10 -7 -11 -10 -2 -10 6 0 12 -11 12 -25 0 -14 -4 -25
-9 -25 -12 0 -41 29 -41 40 0 12 42 41 49 34 3 -3 -1 -9 -9 -14z m1345 -2 c-9
-6 -19 -7 -22 -4 -4 3 -1 6 6 6 7 0 9 4 6 10 -4 6 1 7 11 3 15 -6 15 -7 -1
-15z m-895 1 c0 -6 7 -9 15 -5 9 3 15 0 15 -9 0 -8 -4 -15 -10 -15 -5 0 -10
-5 -10 -11 0 -5 5 -7 10 -4 14 9 12 -8 -3 -29 -12 -16 -13 -14 -14 18 -1 20
-7 43 -13 51 -9 11 -9 15 -1 15 6 0 11 -5 11 -11z m960 -4 c0 -18 -24 -30 -40
-20 -8 5 -5 11 7 21 24 18 33 17 33 -1z m-1000 -17 c0 -6 -3 -8 -7 -5 -3 4
-12 2 -20 -4 -8 -8 -13 -8 -13 -1 0 10 15 19 33 21 4 1 7 -4 7 -11z m1143 -1
c-2 -4 -3 -79 -3 -167 0 -217 -18 -210 -22 9 -3 145 -1 168 12 166 8 -1 14 -5
13 -8z m44 -229 c-1 -46 -3 -9 -3 82 0 91 2 128 3 83 2 -46 2 -120 0 -165z
m-2581 206 c-3 -8 -2 -12 4 -9 11 7 26 -22 16 -32 -3 -3 -12 0 -21 7 -17 14
-20 50 -4 50 6 0 8 -7 5 -16z m2494 -155 l0 -167 -25 -4 c-21 -4 -24 -2 -20
13 4 10 0 21 -9 26 -22 12 -23 68 -1 103 15 24 14 40 -1 40 -8 0 -14 6 -15 13
-1 21 -1 121 0 132 1 6 17 10 36 11 l35 1 0 -168z m-1302 129 c-7 -5 -31 -18
-53 -29 l-40 -20 25 21 c16 15 19 20 8 16 -10 -3 -26 -9 -35 -12 -10 -3 -5 3
11 14 16 11 36 18 44 14 9 -3 13 -1 9 5 -10 15 15 23 31 10 11 -8 11 -12 0
-19z m177 -14 c-10 -7 -23 -10 -29 -6 -6 3 -20 5 -31 4 -20 -3 -20 -2 -1 13
25 19 7 20 -19 1 -18 -13 -18 -14 3 -20 12 -4 26 -4 32 -1 5 3 10 2 10 -3 0
-12 -82 -57 -98 -54 -6 2 -20 -2 -30 -8 -14 -9 -13 -10 8 -5 21 5 22 4 8 -5
-13 -8 -27 -6 -59 10 -38 20 -40 22 -23 35 11 7 21 10 24 7 3 -4 16 -9 30 -11
14 -1 33 -7 42 -12 10 -5 19 -5 22 0 3 5 -10 12 -29 15 -19 4 -37 11 -41 17
-9 15 28 39 52 33 12 -3 36 3 54 15 31 18 35 19 64 4 28 -15 29 -16 11 -29z
m45 31 c0 -9 -6 -12 -15 -9 -8 4 -15 10 -15 15 0 5 7 9 15 9 8 0 15 -7 15 -15z
m915 4 c-4 -6 -13 -8 -21 -5 -8 3 -13 0 -11 -7 1 -7 -4 -11 -11 -9 -8 1 -11
-2 -7 -8 3 -6 -4 -10 -17 -10 -22 1 -22 2 7 25 30 25 72 35 60 14z m55 -18 c0
-24 -10 -37 -57 -70 l-58 -41 -3 26 c-5 35 3 53 30 64 13 6 37 19 53 29 17 11
31 20 33 20 1 1 2 -12 2 -28z m-1565 9 c-3 -5 -12 -10 -18 -10 -7 0 -6 4 3 10
19 12 23 12 15 0z m90 0 c3 -5 2 -10 -4 -10 -5 0 -13 5 -16 10 -3 6 -2 10 4
10 5 0 13 -4 16 -10z m-40 -10 c-3 -5 -12 -10 -18 -10 -7 0 -6 4 3 10 19 12
23 12 15 0z m114 -9 c12 -8 13 -14 3 -35 -13 -28 -27 -33 -35 -13 -7 19 8 41
22 33 6 -4 11 -5 11 -1 0 3 -10 10 -22 15 -13 5 -16 9 -8 9 8 0 21 -3 29 -8z
m1108 -43 c-2 -13 -4 -5 -4 17 -1 22 1 32 4 23 2 -10 2 -28 0 -40z m-1232 22
c3 -5 1 -10 -4 -10 -6 0 -11 5 -11 10 0 6 2 10 4 10 3 0 8 -4 11 -10z m663
-75 c-2 -47 -7 -86 -11 -88 -5 -1 -9 37 -10 86 -2 65 1 87 11 87 10 0 12 -21
10 -85z m-1324 59 c18 -18 20 -30 7 -39 -9 -5 -41 31 -41 47 0 13 18 9 34 -8z
m1195 13 c-2 -1 -13 -9 -24 -17 -19 -14 -19 -14 -6 3 7 9 18 17 24 17 6 0 8
-1 6 -3z m-579 -27 c0 -5 -2 -10 -4 -10 -3 0 -8 5 -11 10 -3 6 -1 10 4 10 6 0
11 -4 11 -10z m604 -2 c-3 -4 -25 -19 -49 -33 -40 -24 -46 -25 -71 -12 -22 12
-24 15 -10 20 10 4 15 3 11 -3 -3 -6 4 -10 16 -10 17 0 19 3 10 14 -16 19 6
27 34 13 14 -7 21 -6 28 5 6 8 16 15 23 15 7 0 11 -4 8 -9z m246 -48 c0 -6 -5
-10 -10 -10 -6 0 -28 -11 -50 -25 -21 -13 -41 -21 -43 -17 -4 6 -2 102 2 110
3 6 101 -49 101 -58z m580 35 c0 -14 -4 -25 -8 -25 -7 0 -8 31 -3 48 4 11 11
-3 11 -23z m600 11 c-7 -7 -13 -7 -20 0 -6 6 -3 10 10 10 13 0 16 -4 10 -10z
m-2573 -28 c-3 -7 -5 -2 -5 12 0 14 2 19 5 13 2 -7 2 -19 0 -25z m144 -65 c-4
-7 -7 11 -8 40 -1 51 -1 51 7 12 4 -22 5 -46 1 -52z m1046 50 c-3 -10 -5 -4
-5 12 0 17 2 24 5 18 2 -7 2 -21 0 -30z m905 30 c-6 -2 -9 -10 -6 -15 4 -7 2
-8 -5 -4 -13 9 -5 26 12 25 9 0 8 -2 -1 -6z m-1538 -28 c4 -14 11 -25 16 -25
6 0 10 -9 10 -20 0 -32 -25 -23 -38 13 -14 40 -15 57 -3 57 5 0 12 -11 15 -25z
m166 21 c0 -3 -4 -8 -10 -11 -5 -3 -10 -1 -10 4 0 6 5 11 10 11 6 0 10 -2 10
-4z m-601 -56 l-1 -25 -8 25 c-4 14 -8 32 -9 40 -1 13 0 13 9 0 5 -8 9 -26 9
-40z m1032 43 c4 -51 -1 -144 -10 -166 -6 -16 -11 -43 -11 -60 0 -36 -26 -59
-59 -52 -12 2 -18 -1 -15 -8 4 -13 -70 -60 -80 -50 -3 4 -6 59 -6 123 0 92 3
120 15 130 12 10 18 10 33 -1 16 -13 16 -13 2 5 -14 18 -13 19 3 13 11 -4 16
-3 12 3 -3 6 4 14 17 19 13 6 37 19 53 30 32 22 45 26 46 14z m1344 -14 c-3
-5 0 -6 8 -3 11 4 15 -5 15 -40 1 -25 -1 -46 -4 -46 -3 0 -19 7 -36 16 -31 16
-31 17 -12 31 10 7 18 16 17 18 -8 14 -2 45 7 40 6 -4 8 -11 5 -16z m-2405 -4
c0 -2 -18 -9 -40 -15 -26 -7 -40 -17 -40 -27 0 -9 -3 -14 -6 -10 -15 15 9 46
39 50 18 2 35 5 40 5 4 1 7 0 7 -3z m619 -26 c-19 -11 -24 -3 -8 14 8 9 16 11
18 5 2 -6 -3 -14 -10 -19z m320 22 c11 -7 6 -13 -18 -26 -33 -17 -48 -15 -37
4 4 6 13 8 21 4 11 -4 13 -1 9 11 -7 18 3 20 25 7z m1411 -1 c0 -5 -5 -10 -11
-10 -5 0 -7 5 -4 10 3 6 8 10 11 10 2 0 4 -4 4 -10z m-488 -22 c-7 -7 -16 -6
-29 1 -16 11 -15 11 6 5 17 -4 21 -3 16 6 -6 9 -4 11 4 5 9 -5 9 -11 3 -17z
m-2172 -8 c0 -17 -2 -19 -14 -8 -10 9 -11 15 -2 20 16 11 16 10 16 -12z m2870
6 c0 -7 10 -16 22 -19 12 -4 19 -9 15 -13 -10 -10 -57 17 -57 33 0 7 5 13 10
13 6 0 10 -6 10 -14z m-1270 -6 c0 -5 -5 -10 -11 -10 -5 0 -7 5 -4 10 3 6 8
10 11 10 2 0 4 -4 4 -10z m531 -7 c13 -16 12 -17 -3 -4 -17 13 -22 21 -14 21
2 0 10 -8 17 -17z m-96 -2 c3 -6 -5 -15 -17 -21 -21 -10 -22 -10 -5 3 14 11
15 16 5 20 -9 4 -9 6 -1 6 6 1 14 -3 18 -8z m203 -16 c-3 -3 -9 2 -12 12 -6
14 -5 15 5 6 7 -7 10 -15 7 -18z m567 15 c3 -6 -1 -7 -9 -4 -18 7 -21 14 -7
14 6 0 13 -4 16 -10z m-2841 -15 c3 -8 1 -15 -4 -15 -6 0 -10 7 -10 15 0 8 2
15 4 15 2 0 6 -7 10 -15z m95 -45 c22 -57 30 -200 12 -200 -5 0 -16 -3 -24 -6
-13 -5 -16 13 -16 131 0 76 2 136 4 134 2 -2 13 -29 24 -59z m1067 51 c-4 -5
0 -11 6 -13 8 -3 3 -10 -12 -18 -24 -13 -24 -12 -10 5 14 17 13 18 -2 12 -20
-7 -25 9 -5 16 20 9 29 8 23 -2z m444 4 c0 -2 -15 -12 -32 -21 l-33 -17 19 22
c17 19 46 29 46 16z m-1640 -30 c18 -34 3 -46 -21 -16 -22 27 -24 41 -6 41 8
0 20 -11 27 -25z m1077 10 c0 -8 -4 -12 -9 -9 -5 3 -6 10 -3 15 9 13 12 11 12
-6z m1068 5 c3 -6 -1 -7 -9 -4 -18 7 -21 14 -7 14 6 0 13 -4 16 -10z m139 -20
c-6 -6 -10 -2 -11 12 -2 16 1 18 10 9 7 -7 8 -14 1 -21z m-1760 -19 c-3 -3
-15 6 -27 18 l-22 24 27 -19 c14 -10 24 -21 22 -23z m1479 -72 c105 -61 229
-132 274 -158 l83 -46 0 -55 c0 -54 -1 -55 -41 -78 l-40 -23 -257 149 -257
150 -3 73 c-2 61 0 76 14 86 10 7 21 13 26 13 4 0 95 -50 201 -111z m957 89
c44 -26 47 -30 25 -48 -8 -7 -15 -21 -15 -31 0 -16 -3 -17 -26 -7 -21 10 -25
18 -23 48 2 19 0 41 -5 48 -11 17 0 15 44 -10z m-1723 -40 c-2 -13 -4 -5 -4
17 -1 22 1 32 4 23 2 -10 2 -28 0 -40z m1003 26 c0 -2 -9 0 -20 6 -11 6 -20
13 -20 16 0 2 9 0 20 -6 11 -6 20 -13 20 -16z m-1117 -3 c4 -17 2 -18 -14 -8
-13 8 -15 13 -6 19 7 4 13 8 13 8 1 0 4 -9 7 -19z m557 -38 c-1 -32 -1 -60 -1
-63 2 -11 3 -358 2 -700 0 -201 1 -387 4 -414 2 -26 0 -59 -5 -72 -9 -23 -10
-24 -43 -8 -47 23 -64 57 -63 129 1 52 4 60 21 63 12 2 32 -6 45 -18 26 -23
30 -24 30 -11 0 6 -13 18 -30 28 -20 12 -30 25 -30 42 0 13 -7 33 -16 43 -15
16 -17 67 -19 473 -2 517 -6 494 78 460 10 -4 17 -3 17 3 0 6 -10 14 -22 18
l-21 6 24 19 c33 25 17 36 -18 12 -44 -31 -53 -35 -53 -25 0 8 87 71 98 72 2
0 3 -26 2 -57z m385 47 c-3 -5 -12 -10 -18 -10 -7 0 -6 4 3 10 19 12 23 12 15
0z m-1059 -7 c-10 -11 -36 -12 -36 -2 0 5 10 9 22 9 12 0 18 -3 14 -7z m474
-155 c-1 -130 -3 -160 -13 -148 -7 8 -34 27 -62 42 -27 15 -51 31 -53 37 -2 5
21 22 50 37 29 14 55 28 57 30 4 4 9 63 10 127 1 20 3 37 6 37 3 0 5 -73 5
-162z m269 97 c-1 -69 -4 -72 -31 -51 -27 20 -24 81 4 100 12 9 24 16 25 16 2
0 2 -29 2 -65z m1130 39 c14 -12 -19 -1 -35 12 -18 14 -18 14 6 3 14 -6 27
-13 29 -15z m-2005 -9 c3 -8 1 -15 -4 -15 -6 0 -10 7 -10 15 0 8 2 15 4 15 2
0 6 -7 10 -15z m1361 -5 c3 -5 1 -10 -4 -10 -6 0 -11 5 -11 10 0 6 2 10 4 10
3 0 8 -4 11 -10z m-1705 -14 c0 -2 -7 -7 -16 -10 -8 -3 -12 -2 -9 4 6 10 25
14 25 6z m2335 -6 c-3 -5 -12 -10 -18 -10 -7 0 -6 4 3 10 19 12 23 12 15 0z
m-1978 -42 c-14 -8 -31 18 -22 33 4 6 12 3 20 -8 10 -13 10 -20 2 -25z m223
27 c10 -12 10 -15 -4 -15 -9 0 -16 7 -16 15 0 8 2 15 4 15 2 0 9 -7 16 -15z
m127 -52 c-2 -16 -4 -5 -4 22 0 28 2 40 4 28 2 -13 2 -35 0 -50z m1840 -55 c3
-56 1 -119 -5 -138 -8 -28 -9 -20 -4 41 5 85 -4 172 -19 164 -5 -4 -9 -2 -9 4
0 5 5 13 11 16 6 4 8 14 4 24 -5 12 -3 13 6 4 6 -6 13 -55 16 -115z m-2405 77
c16 -34 1 -45 -23 -16 -23 28 -24 41 -4 41 9 0 21 -11 27 -25z m317 -1 c18
-21 19 -25 5 -22 -9 1 -20 13 -25 26 -11 28 -8 28 20 -4z m1611 16 c0 -5 -5
-10 -11 -10 -5 0 -7 5 -4 10 3 6 8 10 11 10 2 0 4 -4 4 -10z m405 0 c3 -5 1
-10 -4 -10 -6 0 -11 5 -11 10 0 6 2 10 4 10 3 0 8 -4 11 -10z m-1467 -475 c-2
-294 -7 -460 -13 -462 -10 -3 -18 914 -8 930 19 31 23 -57 21 -468z m1450 440
c1 -1 -6 -5 -17 -8 -11 -3 -19 -1 -18 3 1 5 -7 16 -18 25 -18 14 -16 14 15 -1
19 -9 36 -18 38 -19z m-1865 13 c-6 -10 -35 -10 -51 0 -8 5 1 8 22 8 19 -1 32
-4 29 -8z m-234 -29 c-9 -5 -15 -4 -18 2 -2 6 3 15 10 20 9 5 15 4 18 -2 2 -6
-3 -15 -10 -20z m2080 -10 c5 7 14 10 20 7 6 -4 11 -2 11 3 0 6 5 11 11 11 5
0 7 -4 4 -10 -4 -6 4 -9 17 -7 21 2 23 -3 26 -48 4 -59 -7 -179 -16 -171 -3 4
-5 53 -3 110 l2 103 -33 -5 c-18 -2 -39 -9 -45 -14 -9 -7 -13 -7 -13 1 0 6 -4
11 -10 11 -5 0 -7 -6 -4 -14 3 -8 1 -17 -5 -21 -7 -4 -11 9 -11 37 l0 43 20
-25 c16 -20 22 -22 29 -11z m-1238 11 c18 -10 19 -28 19 -655 0 -355 -4 -645
-8 -645 -5 0 -16 6 -26 13 -15 11 -17 22 -12 73 4 32 6 75 6 94 -6 192 -9
1130 -5 1130 4 0 15 -5 26 -10z m677 -48 c3 -45 1 -52 -15 -51 -10 0 -13 3 -5
6 7 3 12 22 11 46 -1 36 -2 39 -9 17 -8 -23 -8 -22 -7 8 2 51 22 31 25 -26z
m-1398 -29 c0 -29 -3 -53 -7 -53 -19 1 -29 18 -31 55 -2 22 -5 48 -8 58 -5 15
-2 16 20 6 23 -11 26 -18 26 -66z m1421 -47 c-8 -39 -16 11 -11 71 l4 58 6
-55 c3 -30 3 -64 1 -74z m-1497 95 c4 -5 0 -12 -6 -14 -7 -3 -4 -6 7 -6 14 -1
16 -4 7 -13 -9 -9 -9 -15 1 -27 7 -9 -4 -6 -30 8 -32 18 -39 26 -30 36 7 7 18
10 26 7 9 -3 12 -1 7 6 -4 7 -3 12 3 12 5 0 12 -4 15 -9z m158 2 c-10 -4 -9
-9 5 -19 16 -13 15 -13 -10 -2 -20 8 -24 14 -15 20 7 4 18 7 23 7 6 0 4 -3 -3
-6z m1918 -13 c0 -5 -9 -10 -21 -10 -11 0 -17 5 -14 10 3 6 13 10 21 10 8 0
14 -4 14 -10z m-1920 -41 c0 -6 5 -7 12 -3 7 4 8 3 4 -4 -4 -8 0 -12 11 -12
12 -1 6 -7 -17 -20 -58 -32 -68 -27 -67 29 l2 49 27 -14 c16 -8 28 -19 28 -25z
m1200 37 c0 -3 -4 -8 -10 -11 -5 -3 -10 -1 -10 4 0 6 5 11 10 11 6 0 10 -2 10
-4z m737 -60 c-1 -30 -5 -49 -9 -42 -4 6 -5 24 -4 39 2 18 -2 27 -10 27 -8 0
-14 4 -14 10 0 5 7 7 15 4 8 -4 15 -1 15 5 0 6 2 11 5 11 2 0 3 -24 2 -54z
m-2583 12 c19 -27 5 -48 -19 -28 -16 14 -21 50 -6 50 6 0 17 -10 25 -22z m351
13 c3 -5 1 -12 -5 -16 -5 -3 -10 1 -10 9 0 18 6 21 15 7z m2195 -52 c0 -20
-21 -17 -35 5 -23 34 -8 57 17 27 10 -13 18 -27 18 -32z m-2855 31 c-3 -5 -14
-10 -23 -10 -15 0 -15 2 -2 10 20 13 33 13 25 0z m1065 6 c0 -3 -4 -8 -10 -11
-5 -3 -10 -1 -10 4 0 6 5 11 10 11 6 0 10 -2 10 -4z m25 -6 c3 -5 1 -10 -4
-10 -6 0 -11 5 -11 10 0 6 2 10 4 10 3 0 8 -4 11 -10z m-999 -34 c0 -14 -5
-21 -9 -17 -4 4 -5 15 -1 24 9 24 12 21 10 -7z m938 13 c-4 -8 1 -9 17 -5 13
4 3 -6 -23 -21 -45 -26 -65 -49 -54 -61 3 -2 19 7 36 22 18 14 36 23 41 20 6
-3 39 9 76 26 l66 32 54 -28 c54 -29 54 -41 -1 -43 -20 -1 -20 -1 0 14 19 15
19 15 -1 9 -16 -5 -17 -4 -5 5 11 8 7 9 -20 5 -52 -10 -74 -26 -25 -19 38 6
39 5 20 -10 -12 -10 -30 -14 -45 -10 -17 4 -21 3 -11 -3 11 -8 11 -10 0 -14
-8 -3 -11 -9 -7 -13 4 -4 23 2 42 14 20 13 37 18 40 12 4 -5 -2 -12 -13 -16
-11 -3 -36 -17 -56 -31 -20 -13 -41 -22 -46 -19 -5 4 -9 1 -9 -4 0 -6 -5 -11
-11 -11 -5 0 -7 5 -3 12 5 8 0 9 -14 6 -12 -4 -22 -2 -22 4 0 5 -5 6 -11 2 -8
-5 -8 -1 0 14 17 32 13 37 -9 13 -10 -13 -24 -21 -30 -19 -5 1 1 15 15 30 35
37 31 45 -6 14 -35 -30 -47 -32 -55 -11 -4 10 -13 13 -25 10 -11 -4 -19 -2
-19 5 0 6 4 9 9 5 5 -3 12 3 15 12 3 10 23 28 44 40 41 25 57 29 46 12z m1246
1 c0 -5 -4 -10 -9 -10 -6 0 -13 5 -16 10 -3 6 1 10 9 10 9 0 16 -4 16 -10z
m528 -15 c9 -19 9 -23 -2 -19 -15 6 -29 44 -17 44 4 0 13 -11 19 -25z m-2784
0 c3 -10 -5 -20 -24 -30 -28 -15 -30 -14 -30 4 0 11 8 25 18 30 23 14 29 13
36 -4z m-89 -5 c-3 -5 -11 -10 -16 -10 -6 0 -7 5 -4 10 3 6 11 10 16 10 6 0 7
-4 4 -10z m2800 -28 c-12 -11 -15 -12 -10 -3 6 11 4 13 -8 8 -26 -10 -20 8 6
20 28 13 36 -3 12 -25z m-1865 18 c12 -8 12 -10 1 -10 -8 0 -20 -8 -28 -17
-13 -16 -13 -16 -4 3 6 12 7 24 4 28 -10 10 10 7 27 -4z m210 0 c0 -5 -5 -10
-11 -10 -5 0 -7 5 -4 10 3 6 8 10 11 10 2 0 4 -4 4 -10z m2648 -15 c-3 -3 -9
2 -12 12 -6 14 -5 15 5 6 7 -7 10 -15 7 -18z m-3598 -42 c0 -7 4 -13 9 -13 4
0 14 -20 21 -45 15 -52 1 -95 -31 -95 -23 0 -76 45 -94 81 -20 38 -20 105 1
117 19 11 94 -26 94 -45z m-193 15 c-3 -7 -5 -2 -5 12 0 14 2 19 5 13 2 -7 2
-19 0 -25z m204 15 c13 -16 12 -17 -3 -4 -10 7 -18 15 -18 17 0 8 8 3 21 -13z
m2169 -25 c0 -4 -13 -14 -30 -23 l-30 -16 0 41 0 41 30 -18 c17 -9 30 -21 30
-25z m140 38 c0 -2 -7 -7 -16 -10 -8 -3 -12 -2 -9 4 6 10 25 14 25 6z m450
-26 c0 -15 -5 -12 -26 11 -19 22 -19 22 4 10 12 -6 22 -16 22 -21z m-3078 -15
c-5 -38 -13 -43 -33 -19 -11 14 -9 19 11 35 14 10 25 19 25 19 1 0 -1 -16 -3
-35z m395 -4 c-9 -12 -9 -13 1 -7 6 4 12 2 12 -3 0 -28 -35 -3 -36 26 -1 18 1
20 17 10 14 -9 16 -14 6 -26z m2467 23 c3 -8 2 -12 -4 -9 -6 3 -10 10 -10 16
0 14 7 11 14 -7z m-1804 -4 c0 -5 -4 -10 -10 -10 -5 0 -10 5 -10 10 0 6 5 10
10 10 6 0 10 -4 10 -10z m440 -10 c0 11 3 11 12 2 15 -15 3 -24 -101 -82 -55
-31 -76 -39 -85 -30 -8 8 -6 9 9 4 l20 -7 -20 23 -20 23 24 -13 c20 -10 26
-10 35 1 6 8 20 16 31 17 11 2 25 8 30 14 7 8 6 8 -4 3 -9 -5 -12 -4 -7 3 10
17 2 15 -40 -8 -20 -12 -39 -19 -41 -16 -3 3 22 18 55 35 33 17 64 36 68 42 5
9 11 7 21 -6 9 -13 13 -15 13 -5z m1553 -36 c42 -55 55 -93 48 -138 -4 -28 -6
-25 -16 24 -15 73 -38 115 -74 136 -17 10 -27 22 -25 26 10 16 28 3 67 -48z
m-2969 31 c3 -8 1 -15 -3 -15 -5 0 -11 7 -15 15 -3 8 -1 15 3 15 5 0 11 -7 15
-15z m100 -27 c4 -23 16 -56 26 -74 11 -17 16 -35 12 -39 -4 -5 -1 -5 6 -1 7
4 23 -1 36 -12 23 -18 23 -19 5 -30 -23 -15 -42 -16 -34 -2 3 5 0 7 -8 4 -11
-4 -20 10 -32 50 -10 31 -21 53 -25 51 -12 -7 -17 15 -14 55 3 42 2 40 13 40
5 0 11 -19 15 -42z m-154 16 c0 -8 -4 -12 -10 -9 -5 3 -10 10 -10 16 0 5 5 9
10 9 6 0 10 -7 10 -16z m317 -16 c-3 -8 -6 -5 -6 6 -1 11 2 17 5 13 3 -3 4
-12 1 -19z m493 2 c-10 -7 -11 -10 -2 -10 26 0 10 -20 -40 -50 -29 -17 -63
-38 -75 -46 -22 -16 -23 -15 -23 10 0 20 5 26 23 27 21 1 21 1 -3 8 -24 7 -23
8 15 20 22 8 46 18 54 24 21 17 56 34 61 30 2 -2 -2 -8 -10 -13z m220 10 c0
-5 -2 -10 -4 -10 -3 0 -8 5 -11 10 -3 6 -1 10 4 10 6 0 11 -4 11 -10z m-1180
-4 c0 -3 -4 -8 -10 -11 -5 -3 -10 -1 -10 4 0 6 5 11 10 11 6 0 10 -2 10 -4z
m50 -33 c0 -28 -3 -34 -10 -23 -13 20 -13 60 0 60 6 0 10 -17 10 -37z m1111
-2 c-1 -2 3 -7 10 -12 8 -4 10 -11 6 -15 -11 -11 -23 6 -31 41 -6 27 -5 28 6
10 6 -11 11 -22 9 -24z m1889 -18 c0 -39 -3 -53 -9 -43 -6 8 -7 18 -4 24 3 5
1 6 -6 2 -6 -4 -19 -2 -27 5 -12 10 -12 14 -2 21 8 5 2 7 -17 3 l-30 -5 33 15
c18 9 37 13 43 10 5 -4 9 -3 8 2 -2 13 1 23 6 23 3 0 5 -26 5 -57z m59 30 c32
-31 61 -87 61 -119 0 -33 -29 -67 -66 -78 -21 -6 -21 -4 -20 104 0 60 2 110 4
110 2 0 11 -8 21 -17z m123 -5 c-7 -7 -12 -8 -12 -2 0 14 12 26 19 19 2 -3 -1
-11 -7 -17z m-3253 2 c10 -5 24 -24 31 -41 12 -28 12 -33 -5 -45 -29 -21 -41
-17 -59 21 -13 26 -14 40 -6 55 12 23 15 24 39 10z m540 1 c14 -9 15 -29 8
-189 -1 -23 3 -44 8 -46 6 -2 7 -6 3 -10 -12 -13 -48 14 -49 37 0 40 -1 171 0
195 1 24 8 27 30 13z m1121 -183 l0 -193 -35 -23 c-19 -14 -39 -21 -46 -16 -8
4 -9 3 -5 -4 9 -15 -6 -16 -21 -1 -8 8 -13 7 -18 -2 -5 -7 -4 -10 3 -5 6 3 13
2 17 -4 10 -16 -26 -25 -37 -9 -8 11 -9 10 -4 -3 3 -11 -2 -21 -13 -28 -15 -8
-20 -6 -24 10 -3 11 1 27 10 35 8 8 10 15 4 15 -7 0 -11 52 -11 158 l0 157 33
21 c31 20 63 22 51 2 -3 -5 8 -2 25 6 36 19 38 22 12 22 -11 0 -17 -4 -15 -8
3 -4 1 -8 -5 -8 -23 0 -18 18 11 35 22 12 29 14 23 4 -4 -8 3 -4 16 9 13 12
25 22 26 22 2 0 3 -87 3 -192z m-1563 145 c-3 -10 -5 -4 -5 12 0 17 2 24 5 18
2 -7 2 -21 0 -30z m1250 15 c-3 -8 -6 -5 -6 6 -1 11 2 17 5 13 3 -3 4 -12 1
-19z m1920 -10 c-3 -8 -6 -5 -6 6 -1 11 2 17 5 13 3 -3 4 -12 1 -19z m-3050 6
c-4 -4 5 -20 18 -36 31 -37 31 -42 -2 -59 -16 -7 -31 -15 -34 -16 -9 -6 -29
46 -29 77 0 22 5 30 23 33 12 2 24 5 26 6 2 0 1 -2 -2 -5z m43 -2 c0 -13 -12
-22 -22 -16 -10 6 -1 24 13 24 5 0 9 -4 9 -8z m379 -27 c33 -20 62 -39 65 -44
8 -12 -38 -40 -77 -48 -17 -3 -38 -10 -44 -16 -10 -7 -13 7 -13 67 0 42 2 76
4 76 3 0 32 -16 65 -35z m2178 5 c41 -26 47 -35 45 -59 -5 -42 23 -100 66
-138 40 -36 63 -40 102 -18 14 8 28 14 33 15 4 0 7 -31 7 -70 0 -38 -3 -70 -6
-70 -4 0 -109 59 -235 132 -145 84 -225 136 -219 142 7 7 150 94 157 96 1 0
24 -14 50 -30z m217 -17 c11 -15 20 -34 18 -41 -2 -8 1 -11 7 -7 7 4 11 -14
11 -54 0 -71 -12 -79 -27 -18 -6 23 -14 51 -18 62 -5 15 -4 16 3 6 8 -11 10
-8 9 12 -1 16 -6 22 -11 16 -13 -12 -29 -12 -21 1 4 6 3 9 -2 8 -4 -1 -23 6
-40 17 -23 13 -29 22 -20 27 21 15 68 -1 91 -29z m-2048 -170 c-3 -7 -26 -23
-51 -35 -25 -12 -45 -26 -45 -30 0 -13 10 -9 60 21 45 28 48 28 53 11 10 -40
-89 -75 -121 -43 -19 18 -33 16 -67 -11 -27 -22 -28 -26 -17 -50 l12 -27 -62
36 c-35 19 -89 50 -120 67 -62 35 -73 48 -34 41 16 -3 34 4 57 24 61 53 130
95 145 89 14 -5 53 13 149 69 l40 23 3 -86 c2 -47 1 -91 -2 -99z m194 173 c0
-3 -4 -8 -10 -11 -5 -3 -10 -1 -10 4 0 6 5 11 10 11 6 0 10 -2 10 -4z m-1027
-53 c9 -24 13 -43 8 -43 -10 0 -31 54 -31 78 0 20 4 15 23 -35z m1240 35 c-13
-6 -23 -15 -23 -20 0 -5 9 -4 21 2 42 23 26 3 -19 -23 -31 -19 -39 -21 -23 -7
14 12 18 20 10 20 -9 1 -5 8 10 20 13 11 28 20 35 19 6 0 1 -5 -11 -11z m1501
-13 c-3 -14 -2 -25 4 -25 5 0 12 9 15 20 3 12 14 20 25 20 23 0 69 -50 78 -85
9 -35 1 -70 -16 -67 -8 2 -27 4 -43 4 -15 1 -30 5 -33 9 -3 5 2 6 10 3 14 -5
18 1 15 22 0 4 5 11 13 16 10 7 9 8 -4 4 -10 -3 -18 0 -18 6 0 6 -3 8 -6 5 -4
-4 -1 -15 7 -24 13 -16 12 -17 -3 -5 -13 10 -17 10 -20 0 -3 -8 -10 -4 -18 12
-12 23 -12 24 3 11 14 -11 17 -11 17 0 0 8 -5 21 -10 29 -9 13 -11 13 -20 0
-8 -12 -10 -9 -10 12 0 27 9 58 16 58 3 0 2 -11 -2 -25z m-2931 -26 c-7 -7
-12 -3 -15 16 -5 25 -4 25 10 11 12 -11 13 -19 5 -27z m1237 37 c0 -3 -4 -8
-10 -11 -5 -3 -10 -1 -10 4 0 6 5 11 10 11 6 0 10 -2 10 -4z m140 -16 c0 -11
-4 -20 -9 -20 -7 0 -8 17 -2 38 4 10 11 -2 11 -18z m-1290 -5 c0 -10 -10 -15
-27 -15 -26 0 -26 1 -7 15 25 19 34 19 34 0z m741 -8 c-10 -9 -11 -8 -5 6 3
10 9 15 12 12 3 -3 0 -11 -7 -18z m-28 6 c-7 -2 -13 -9 -13 -14 0 -6 5 -7 10
-4 6 3 10 2 10 -3 0 -12 -101 -63 -111 -56 -5 3 -9 9 -9 14 0 11 99 70 115 69
6 0 4 -3 -2 -6z m-647 -49 c4 -23 2 -33 -10 -37 -13 -5 -16 2 -16 40 0 52 15
49 26 -3z m376 -8 c-2 -25 -7 -46 -11 -46 -3 0 -23 11 -45 23 l-38 24 43 25
c24 15 46 25 49 23 3 -2 4 -24 2 -49z m-420 3 c-2 -22 -5 -39 -6 -37 0 2 -12
16 -26 32 -14 16 -20 26 -13 22 6 -3 18 0 25 8 20 24 24 19 20 -25z m-64 1
c17 -11 32 -24 32 -30 0 -6 -18 2 -40 16 -22 15 -40 28 -40 30 0 9 17 3 48
-16z m274 2 c7 -27 -5 -47 -29 -48 -13 0 -21 2 -18 4 3 3 0 11 -7 19 -8 11 -7
17 8 28 26 19 41 19 46 -3z m2980 -32 c-2 -16 0 -43 6 -59 8 -22 8 -29 -1 -25
-7 2 -13 16 -14 30 0 15 -6 30 -13 34 -9 5 -7 13 6 29 10 11 19 21 19 21 1 0
0 -13 -3 -30z m-3263 -17 c36 -20 69 -41 73 -47 22 -32 -3 -96 -37 -96 -19 0
-73 48 -90 79 -16 33 -30 101 -20 101 5 0 38 -16 74 -37z m1188 31 c-3 -3 -12
-4 -19 -1 -8 3 -5 6 6 6 11 1 17 -2 13 -5z m-1239 -123 c10 -14 35 -35 56 -46
l36 -20 59 32 59 33 46 -26 c25 -14 51 -22 57 -18 7 4 9 3 6 -3 -4 -6 40 -38
103 -74 l109 -63 3 -50 3 -51 43 -3 c37 -3 44 0 49 17 3 12 8 21 11 21 3 0 37
-19 76 -41 117 -69 328 -190 371 -213 78 -43 85 -50 85 -81 0 -51 11 -75 37
-81 30 -8 73 10 73 31 0 14 3 14 30 0 17 -9 36 -13 42 -9 6 4 8 3 4 -4 -3 -6
-2 -13 4 -17 5 -3 10 -25 10 -47 0 -74 67 -158 126 -158 10 0 41 13 69 29 l51
29 52 -30 52 -30 0 -99 0 -100 -30 16 c-16 9 -54 30 -82 47 -29 17 -159 92
-288 166 -129 74 -239 138 -245 142 -11 8 -524 303 -601 346 -27 14 -53 30
-59 34 -5 4 -86 52 -180 105 -93 54 -228 131 -298 173 l-128 75 73 43 73 44
12 -47 c7 -26 20 -58 31 -72z m258 98 c19 -22 19 -22 -3 -8 -13 8 -23 17 -23
21 0 12 6 9 26 -13z m185 6 c16 -9 35 -13 41 -9 6 4 8 3 4 -4 -3 -6 7 -19 24
-28 29 -18 30 -20 30 -99 0 -44 -4 -86 -9 -93 -6 -11 -38 3 -142 63 -74 42
-136 79 -138 81 -10 10 12 18 43 16 25 -2 42 6 74 34 23 20 39 40 36 45 -8 13
3 11 37 -6z m219 -41 c0 -8 -4 -14 -8 -14 -16 0 -32 25 -32 50 l1 25 19 -24
c11 -13 20 -29 20 -37z m25 46 c3 -5 1 -10 -4 -10 -6 0 -11 5 -11 10 0 6 2 10
4 10 3 0 8 -4 11 -10z m611 -1 c3 -6 0 -15 -7 -20 -14 -8 -32 9 -23 23 7 11
22 10 30 -3z m1988 -49 c5 -17 4 -21 -2 -11 -5 7 -27 22 -48 32 -22 10 -30 17
-19 14 11 -2 27 0 35 5 16 10 23 2 34 -40z m-3074 22 c0 -5 11 -15 25 -22 28
-15 16 -31 -18 -24 -31 6 -60 36 -45 46 17 10 38 10 38 0z m1050 -2 c0 -5 -2
-10 -4 -10 -3 0 -8 5 -11 10 -3 6 -1 10 4 10 6 0 11 -4 11 -10z m1945 -26 c25
-14 50 -22 56 -18 8 4 9 3 5 -4 -4 -6 5 -17 20 -25 l27 -14 -71 -42 c-39 -22
-75 -41 -81 -41 -7 0 -11 31 -11 85 0 47 3 85 6 85 3 0 25 -12 49 -26z m-1875
12 c0 -3 -4 -8 -10 -11 -5 -3 -10 -1 -10 4 0 6 5 11 10 11 6 0 10 -2 10 -4z
m1715 -16 c3 -5 -1 -10 -10 -10 -9 0 -13 5 -10 10 3 6 8 10 10 10 2 0 7 -4 10
-10z m-1964 -23 c-10 -9 -11 -8 -5 6 3 10 9 15 12 12 3 -3 0 -11 -7 -18z m149
13 c8 -5 11 -10 5 -10 -5 0 -17 5 -25 10 -8 5 -10 10 -5 10 6 0 17 -5 25 -10z
m130 5 c0 -2 -10 -9 -22 -15 -22 -11 -22 -10 -4 4 21 17 26 19 26 11z m-1182
-28 c9 -8 8 -13 -5 -23 -26 -19 -30 -17 -31 16 -1 30 4 31 36 7z m411 4 c9 -6
14 -29 15 -65 1 -51 0 -56 -20 -56 -20 0 -23 6 -26 61 -4 72 0 80 31 60z m174
-106 c49 -27 112 -63 140 -79 29 -16 91 -52 138 -80 48 -28 101 -59 118 -68
31 -17 31 -18 31 -96 0 -106 -10 -115 -85 -72 -30 17 -59 28 -65 25 -6 -4 -9
-1 -8 5 3 9 -185 126 -287 178 -76 39 -110 67 -112 92 -1 14 -5 61 -9 105 l-7
79 29 -19 c16 -10 69 -42 117 -70z m373 54 l54 -30 0 -115 0 -115 -57 32 c-32
18 -85 49 -118 69 -33 19 -73 41 -89 48 -23 10 -26 15 -16 27 6 8 20 17 31 20
10 4 19 12 19 18 0 12 96 76 114 77 5 0 33 -14 62 -31z m94 11 c0 -5 -5 -10
-11 -10 -5 0 -7 5 -4 10 3 6 8 10 11 10 2 0 4 -4 4 -10z m-250 -14 c0 -2 -7
-7 -16 -10 -8 -3 -12 -2 -9 4 6 10 25 14 25 6z m-88 -31 c6 -14 8 -28 5 -31
-10 -11 -37 17 -37 37 0 27 18 23 32 -6z m38 15 c0 -5 -4 -10 -10 -10 -5 0
-10 5 -10 10 0 6 5 10 10 10 6 0 10 -4 10 -10z m300 0 c0 -5 -2 -10 -4 -10 -3
0 -8 5 -11 10 -3 6 -1 10 4 10 6 0 11 -4 11 -10z m3 -35 c17 -12 19 -26 15
-124 -2 -68 -7 -110 -13 -107 -5 1 -9 12 -8 22 1 10 0 13 -3 7 -15 -34 -22 -3
-23 102 -1 63 2 115 6 115 4 0 16 -7 26 -15z m97 5 c8 -5 11 -10 5 -10 -5 0
-17 5 -25 10 -8 5 -10 10 -5 10 6 0 17 -5 25 -10z m63 -100 c12 -10 -51 -46
-93 -54 -35 -6 -36 -6 -34 26 1 18 2 48 3 66 l1 33 58 -32 c31 -17 61 -35 65
-39z m41 62 c3 -5 -1 -9 -9 -9 -8 0 -12 4 -9 9 3 4 7 8 9 8 2 0 6 -4 9 -8z
m-842 -14 c-9 -9 -15 -9 -24 0 -9 9 -7 12 12 12 19 0 21 -3 12 -12z m1127
-111 l1 -124 -27 -13 c-16 -7 -34 -12 -41 -11 -6 1 -33 -12 -58 -30 -65 -45
-105 -45 -179 0 -33 20 -72 42 -87 50 l-28 14 33 32 c49 48 113 87 148 91 26
3 91 35 204 100 11 7 23 12 27 13 3 1 7 -54 7 -122z m-1099 57 c0 -14 -3 -15
-17 -3 -10 7 -20 15 -22 16 -2 2 5 3 17 3 14 0 22 -6 22 -16z m868 -9 c-3 -3
-9 2 -12 12 -6 14 -5 15 5 6 7 -7 10 -15 7 -18z m-890 -30 c1 -1 -11 -2 -28
-3 -23 0 -30 4 -30 19 0 19 1 19 28 2 15 -9 28 -18 30 -18z m859 9 c-7 -6 -33
-23 -58 -38 -41 -23 -47 -24 -53 -10 -9 23 -9 22 32 43 40 21 101 25 79 5z
m-848 -33 c20 -13 4 -31 -29 -31 -16 0 -32 5 -36 11 -7 12 13 29 36 29 8 0 21
-4 29 -9z m679 -46 c15 -33 15 -35 -2 -35 -14 0 -26 21 -26 46 0 22 16 16 28
-11z m-38 -125 c0 -56 -1 -57 -25 -52 -24 4 -25 8 -25 68 l0 64 25 -12 c22
-10 25 -17 25 -68z m530 30 c0 -28 -4 -40 -15 -40 -24 0 -12 78 13 80 1 0 2
-18 2 -40z m60 8 c0 -5 -6 -8 -14 -8 -9 0 -12 7 -9 21 4 16 8 17 14 7 5 -7 9
-16 9 -20z m-481 -45 c45 -26 81 -50 81 -53 0 -3 -10 -10 -22 -15 -29 -13 -34
-54 -13 -95 12 -23 13 -35 6 -44 -9 -11 -23 -7 -71 18 l-60 31 0 46 c0 25 -3
49 -7 53 -10 9 -11 106 -2 106 5 0 44 -21 88 -47z m359 0 l2 -38 -18 30 c-13
21 -16 32 -8 37 19 13 22 9 24 -29z m-28 -40 c0 -7 -6 -13 -14 -13 -15 0 -26
21 -26 47 0 14 3 14 20 -2 11 -10 20 -24 20 -32z m-72 -4 c-2 -14 -11 -25 -22
-27 -14 -3 -17 0 -13 13 4 9 3 14 -3 10 -6 -3 -15 -3 -21 1 -7 4 0 14 17 25
32 21 47 13 42 -22z m160 -41 c2 -60 1 -62 -13 -38 -15 26 -20 82 -8 93 15 16
20 3 21 -55z m-528 12 c0 -5 -9 -10 -20 -10 -11 0 -20 5 -20 10 0 6 9 10 20
10 11 0 20 -4 20 -10z m238 -59 c7 -14 10 -27 5 -28 -21 -8 -37 -23 -30 -29 3
-4 13 -1 22 6 22 18 32 3 12 -17 -16 -16 -19 -15 -46 11 -38 37 -50 85 -26
102 20 15 39 1 63 -45z m42 27 c0 -5 5 -6 10 -3 6 3 10 -1 10 -9 0 -25 -26
-19 -38 9 -9 20 -9 23 3 18 8 -3 15 -9 15 -15z m181 -5 c13 -16 12 -17 -3 -4
-17 13 -22 21 -14 21 2 0 10 -8 17 -17z m-446 -12 c10 -17 -9 -20 -30 -5 -18
14 -18 14 2 14 12 0 24 -4 28 -9z m400 -2 c4 -6 12 -8 19 -6 6 3 12 -3 12 -13
0 -15 -3 -15 -33 3 -18 10 -33 21 -33 23 0 9 29 3 35 -7z m-450 -19 c0 -5 8
-15 18 -22 16 -12 14 -13 -13 -13 -22 0 -30 5 -30 18 0 9 5 17 11 17 5 0 7 6
3 13 -4 7 -3 9 2 4 5 -5 9 -13 9 -17z m433 -12 c-2 -6 14 -20 35 -31 33 -18
37 -25 37 -59 0 -45 -12 -48 -46 -10 -35 37 -54 83 -41 100 12 15 18 15 15 0z
m219 -70 c-27 -21 -10 -23 17 -3 34 26 45 19 39 -22 -3 -21 -10 -42 -16 -48
-7 -7 -8 -6 -3 2 4 8 -11 22 -43 40 -46 26 -50 31 -49 65 l0 36 38 -26 38 -27
-21 -17z m-231 -30 c15 -21 33 -37 39 -34 6 2 12 -2 12 -9 0 -31 -68 31 -86
78 -6 16 -11 36 -10 45 0 9 5 4 9 -12 5 -15 21 -46 36 -68z m134 67 c0 -8 -2
-15 -4 -15 -2 0 -6 7 -10 15 -3 8 -1 15 4 15 6 0 10 -7 10 -15z m-514 -9 c16
-12 16 -15 4 -20 -39 -13 -70 -10 -70 8 0 26 37 33 66 12z m309 -27 c4 -17 26
-51 49 -75 24 -24 41 -44 40 -44 -1 0 -10 -3 -20 -7 -13 -5 -15 -3 -9 7 5 9 4
11 -4 6 -22 -14 -121 62 -113 87 1 4 -1 6 -5 6 -26 -4 -23 4 7 26 45 31 47 31
55 -6z m-88 -35 l28 -26 -30 20 c-16 10 -37 22 -45 25 -12 4 -12 6 2 6 9 1 30
-11 45 -25z m260 -6 c-3 -8 -6 -5 -6 6 -1 11 2 17 5 13 3 -3 4 -12 1 -19z
m-315 -2 c-3 -5 2 -6 12 -3 10 4 15 3 11 -3 -3 -5 14 -21 39 -35 51 -30 65
-64 41 -101 -8 -13 -24 -24 -35 -24 -29 0 -86 61 -99 105 -17 61 -14 73 13 71
13 0 22 -5 18 -10z m503 -87 c-1 -25 -9 -35 -50 -59 -28 -17 -53 -30 -57 -30
-9 0 -11 164 -2 172 3 4 29 -7 58 -24 45 -26 52 -34 51 -59z m-30 63 c-3 -3
-11 0 -18 7 -9 10 -8 11 6 5 10 -3 15 -9 12 -12z m-115 -88 c0 -58 -2 -65 -15
-54 -25 21 -16 120 12 120 2 0 3 -30 3 -66z m-197 23 c-3 -5 0 -12 6 -16 7 -5
3 -12 -14 -19 -23 -11 -25 -10 -25 16 0 21 5 28 19 28 11 0 17 -4 14 -9z m381
4 c3 -5 -1 -11 -9 -15 -9 -3 -15 0 -15 9 0 16 16 20 24 6z m-244 -26 c0 -30
-1 -30 -41 -6 -32 19 -26 29 19 30 17 1 22 -5 22 -24z m210 -86 c0 -65 3 -63
-47 -42 -17 7 -9 -25 10 -39 15 -11 7 -18 -62 -56 l-79 -42 -1 91 -2 91 54
-31 c63 -36 64 -36 64 -15 0 9 -11 21 -24 27 -12 5 -23 13 -23 16 0 7 91 60
103 61 4 0 7 -27 7 -61z m-193 -71 c-2 -18 -4 -6 -4 27 0 33 2 48 4 33 2 -15
2 -42 0 -60z m0 -100 c-2 -13 -4 -3 -4 22 0 25 2 35 4 23 2 -13 2 -33 0 -45z"/>
<path d="M2755 4840 c3 -5 11 -10 16 -10 6 0 7 5 4 10 -3 6 -11 10 -16 10 -6
0 -7 -4 -4 -10z"/>
<path d="M2761 4811 c-13 -11 -28 -22 -34 -24 -7 -3 -8 -8 -3 -13 5 -5 11 -4
13 4 3 6 16 12 29 12 17 0 23 4 18 12 -5 8 -2 9 9 5 9 -3 19 -2 22 2 3 5 -2
12 -11 15 -21 8 -18 9 -43 -13z"/>
<path d="M2970 4717 c19 -20 41 -37 48 -37 8 0 1 10 -15 23 -58 47 -67 51 -33
14z"/>
<path d="M2977 4656 c-4 -10 -1 -13 9 -9 15 6 19 23 5 23 -5 0 -11 -7 -14 -14z"/>
<path d="M3075 4660 c-7 -11 22 -26 32 -16 4 3 -1 6 -11 6 -9 0 -14 5 -11 10
3 6 4 10 1 10 -3 0 -8 -5 -11 -10z"/>
<path d="M3190 4590 c0 -9 39 -25 45 -18 2 2 -7 8 -21 15 -13 6 -24 7 -24 3z"/>
<path d="M3068 4543 c7 -3 16 -2 19 1 4 3 -2 6 -13 5 -11 0 -14 -3 -6 -6z"/>
<path d="M3090 4506 c0 -4 7 -14 15 -22 8 -9 15 -11 15 -6 0 5 -7 15 -15 22
-8 7 -15 9 -15 6z"/>
<path d="M3165 4470 c-4 -6 -11 -8 -16 -5 -5 4 -9 4 -9 1 0 -3 10 -10 21 -17
17 -8 20 -8 14 1 -4 7 -1 16 6 21 9 6 10 9 2 9 -6 0 -15 -5 -18 -10z"/>
<path d="M3230 4430 c0 -5 5 -10 11 -10 5 0 7 5 4 10 -3 6 -8 10 -11 10 -2 0
-4 -4 -4 -10z"/>
<path d="M3330 4376 c0 -2 7 -7 16 -10 8 -3 12 -2 9 4 -6 10 -25 14 -25 6z"/>
<path d="M3843 4217 c0 -7 9 -13 19 -13 10 0 18 1 18 3 0 1 -8 7 -18 12 -13 7
-19 6 -19 -2z"/>
<path d="M2357 4720 c8 -30 21 -34 15 -5 -2 14 -8 25 -12 25 -5 0 -6 -9 -3
-20z"/>
<path d="M2318 4703 c7 -3 16 -2 19 1 4 3 -2 6 -13 5 -11 0 -14 -3 -6 -6z"/>
<path d="M2670 4340 c-9 -6 -10 -10 -3 -10 6 0 15 5 18 10 8 12 4 12 -15 0z"/>
<path d="M3070 4145 c-14 -8 -20 -14 -15 -14 6 0 21 6 35 14 14 8 21 14 15 14
-5 0 -21 -6 -35 -14z"/>
<path d="M2960 4075 c-14 -8 -20 -14 -14 -15 5 0 19 7 30 15 24 18 16 19 -16
0z"/>
<path d="M1160 4081 c0 -6 4 -13 10 -16 6 -3 7 1 4 9 -7 18 -14 21 -14 7z"/>
<path d="M2190 3552 c0 -51 4 -92 8 -92 10 0 9 166 -1 176 -4 4 -7 -34 -7 -84z"/>
<path d="M3333 3949 c-28 -10 -30 -35 -3 -44 21 -7 60 10 60 25 0 17 -34 28
-57 19z m41 -18 c8 -12 -20 -22 -39 -15 -19 8 -9 24 15 24 10 0 21 -4 24 -9z"/>
<path d="M3965 3589 c-4 -6 -5 -11 -4 -12 2 -2 11 -8 20 -15 15 -11 17 -9 15
13 -1 25 -19 34 -31 14z"/>
<path d="M905 3820 c-3 -5 -2 -10 4 -10 5 0 13 5 16 10 3 6 2 10 -4 10 -5 0
-13 -4 -16 -10z"/>
<path d="M1367 3600 c-5 -21 0 -25 21 -11 10 6 10 10 -1 20 -12 9 -16 7 -20
-9z"/>
<path d="M1695 3421 c2 -5 -8 -14 -23 -22 -15 -7 -37 -22 -48 -32 -15 -12 -24
-15 -29 -8 -8 13 -55 15 -55 2 0 -5 10 -12 23 -14 17 -3 16 -5 -8 -6 -22 -1
-26 -4 -16 -10 8 -5 22 -6 30 -1 9 4 18 8 21 7 3 -1 36 17 73 40 55 33 64 41
48 46 -12 3 -19 2 -16 -2z"/>
<path d="M1676 3341 c-14 -5 -16 -10 -8 -15 7 -4 10 -11 7 -16 -3 -6 7 -2 24
8 20 11 26 19 18 24 -14 9 -16 9 -41 -1z m34 -5 c0 -2 -7 -7 -16 -10 -8 -3
-12 -2 -9 4 6 10 25 14 25 6z"/>
<path d="M1766 3297 c3 -10 9 -15 12 -12 3 3 0 11 -7 18 -10 9 -11 8 -5 -6z"/>
<path d="M1647 3236 c-16 -12 -16 -14 -2 -20 11 -4 14 -2 9 6 -5 7 -2 9 9 5
11 -4 14 -2 10 9 -3 7 -6 14 -7 14 0 0 -9 -7 -19 -14z"/>
<path d="M2610 3246 l-25 -14 26 1 c14 1 26 8 26 15 0 6 -1 12 -1 12 -1 -1
-12 -7 -26 -14z"/>
<path d="M4033 3215 c-1 -5 -4 -233 -7 -505 -4 -493 -4 -494 5 -140 7 297 8
681 2 645z"/>
<path d="M3950 2805 c0 -10 29 -24 34 -17 3 6 -3 12 -14 15 -11 3 -20 4 -20 2z"/>
<path d="M3975 2730 c-3 -5 -1 -10 4 -10 6 0 11 5 11 10 0 6 -2 10 -4 10 -3 0
-8 -4 -11 -10z"/>
<path d="M3984 2480 c0 -85 2 -120 3 -77 2 42 2 112 0 155 -1 42 -3 7 -3 -78z"/>
<path d="M2032 3211 c-9 -5 -12 -31 -10 -91 4 -118 23 -114 23 5 0 52 0 95 0
95 0 0 -6 -4 -13 -9z"/>
<path d="M2329 3203 c-13 -15 -12 -15 9 -4 23 12 28 21 13 21 -5 0 -15 -7 -22
-17z"/>
<path d="M2391 3191 c-10 -6 -9 -12 4 -25 9 -9 12 -16 6 -16 -5 0 -17 7 -26
16 -9 9 -19 13 -23 9 -4 -4 3 -15 16 -26 13 -10 21 -23 18 -28 -3 -5 1 -12 10
-15 21 -8 32 -7 17 2 -8 5 -7 12 4 27 12 16 14 16 10 3 -3 -10 -2 -20 3 -23
13 -8 5 40 -11 63 -10 13 -20 18 -28 13z"/>
<path d="M1871 3156 c-13 -7 -20 -16 -15 -19 5 -3 20 0 33 7 13 7 20 16 15 19
-5 3 -20 0 -33 -7z"/>
<path d="M3688 3161 l-28 -18 33 0 c17 0 26 2 19 5 -10 3 -8 8 5 18 26 19 3
16 -29 -5z"/>
<path d="M3640 3135 c0 -10 29 -24 34 -17 3 6 -3 12 -14 15 -11 3 -20 4 -20 2z"/>
<path d="M1699 3043 c-13 -17 -13 -17 6 -3 11 8 22 16 24 17 2 2 0 3 -6 3 -6
0 -17 -8 -24 -17z"/>
<path d="M3690 3040 c0 -5 5 -10 11 -10 5 0 7 5 4 10 -3 6 -8 10 -11 10 -2 0
-4 -4 -4 -10z"/>
<path d="M1951 3014 c0 -11 3 -14 6 -6 3 7 2 16 -1 19 -3 4 -6 -2 -5 -13z"/>
<path d="M3090 3010 c-18 -12 -2 -12 25 0 13 6 15 9 5 9 -8 0 -22 -4 -30 -9z"/>
<path d="M1719 2993 c-13 -15 -12 -15 9 -4 23 12 28 21 13 21 -5 0 -15 -7 -22
-17z"/>
<path d="M1684 2929 c-9 -16 16 -19 42 -6 l26 14 -31 0 c-18 0 -34 -4 -37 -8z"/>
<path d="M2317 2923 c-4 -3 -7 -11 -7 -17 0 -6 5 -5 12 2 6 6 9 14 7 17 -3 3
-9 2 -12 -2z"/>
<path d="M3697 2889 c7 -7 15 -10 18 -7 3 3 -2 9 -12 12 -14 6 -15 5 -6 -5z"/>
<path d="M2380 2820 c-9 -6 -10 -10 -3 -10 6 0 15 5 18 10 8 12 4 12 -15 0z"/>
<path d="M2410 2600 c0 -5 5 -10 11 -10 5 0 7 5 4 10 -3 6 -8 10 -11 10 -2 0
-4 -4 -4 -10z"/>
<path d="M1410 2840 c0 -5 5 -10 10 -10 6 0 10 5 10 10 0 6 -4 10 -10 10 -5 0
-10 -4 -10 -10z"/>
<path d="M2170 2840 c0 -5 5 -10 10 -10 6 0 10 5 10 10 0 6 -4 10 -10 10 -5 0
-10 -4 -10 -10z"/>
<path d="M1668 2796 c-15 -11 -14 -13 12 -13 17 0 30 4 30 9 0 5 -4 7 -9 4 -5
-4 -11 -2 -13 3 -1 5 -11 4 -20 -3z"/>
<path d="M1580 2740 c-20 -12 19 -21 41 -10 10 6 19 12 19 13 0 6 -49 4 -60
-3z"/>
<path d="M1650 2700 c-8 -5 -10 -10 -5 -10 6 0 17 5 25 10 8 5 11 10 5 10 -5
0 -17 -5 -25 -10z"/>
<path d="M1750 2689 c0 -5 5 -7 10 -4 6 3 10 8 10 11 0 2 -4 4 -10 4 -5 0 -10
-5 -10 -11z"/>
<path d="M1690 2571 c0 -7 -5 -9 -12 -5 -7 5 -8 3 -3 -5 5 -9 10 -10 18 -2 6
6 8 14 4 18 -4 3 -7 1 -7 -6z"/>
<path d="M2021 2499 c10 -6 11 -9 2 -9 -7 0 -13 -5 -13 -10 0 -6 11 -3 26 6
19 13 28 14 37 5 6 -6 16 -11 22 -11 5 0 1 6 -10 13 -23 13 -86 20 -64 6z"/>
<path d="M2041 2476 c-16 -19 2 -30 36 -21 24 6 25 7 7 20 -24 18 -29 18 -43
1z"/>
<path d="M2326 2435 c4 -8 10 -12 15 -9 11 6 2 24 -11 24 -5 0 -7 -7 -4 -15z"/>
<path d="M2206 2415 c8 -21 54 -39 67 -26 6 6 1 14 -13 21 -15 8 -20 8 -16 1
4 -6 0 -11 -8 -11 -9 0 -15 5 -13 11 1 6 -4 14 -11 16 -8 3 -10 -1 -6 -12z"/>
<path d="M2145 2367 c10 -8 25 -12 33 -10 17 7 10 13 -24 19 -27 5 -28 4 -9
-9z"/>
<path d="M2327 2359 c7 -7 15 -10 18 -7 3 3 -2 9 -12 12 -14 6 -15 5 -6 -5z"/>
<path d="M2350 2289 c0 -5 5 -7 10 -4 6 3 10 8 10 11 0 2 -4 4 -10 4 -5 0 -10
-5 -10 -11z"/>
<path d="M3740 2280 c-9 -6 -10 -10 -3 -10 6 0 15 5 18 10 8 12 4 12 -15 0z"/>
<path d="M3906 2203 c10 -43 19 -46 20 -7 0 22 -4 34 -13 34 -10 0 -12 -8 -7
-27z"/>
<path d="M3930 2195 c0 -8 2 -15 4 -15 2 0 6 7 10 15 3 8 1 15 -4 15 -6 0 -10
-7 -10 -15z"/>
<path d="M1865 2030 c3 -5 10 -10 16 -10 5 0 9 5 9 10 0 6 -7 10 -16 10 -8 0
-12 -4 -9 -10z"/>
<path d="M2019 2021 c11 -7 11 -9 0 -14 -11 -4 -11 -6 1 -6 13 -1 13 -2 0 -11
-11 -7 -11 -10 -2 -10 7 0 10 -4 7 -10 -8 -13 1 -13 27 1 21 11 21 12 -3 25
-15 8 -18 13 -9 14 13 0 13 1 0 10 -8 5 -19 10 -25 10 -5 0 -4 -4 4 -9z"/>
<path d="M3920 1986 c0 -2 8 -10 18 -17 15 -13 16 -12 3 4 -13 16 -21 21 -21
13z"/>
<path d="M2280 1961 c0 -5 -14 -11 -32 -15 -17 -3 -29 -9 -26 -11 3 -3 26 0
51 7 30 8 42 15 34 20 -16 10 -27 10 -27 -1z"/>
<path d="M2100 1950 c-8 -5 -10 -10 -5 -10 6 0 17 5 25 10 8 5 11 10 5 10 -5
0 -17 -5 -25 -10z"/>
<path d="M2061 1926 c-7 -8 -8 -17 -3 -20 6 -3 13 1 16 10 9 23 2 28 -13 10z"/>
<path d="M2373 1880 c-20 -16 -21 -19 -6 -24 20 -8 45 14 35 31 -5 8 -13 6
-29 -7z"/>
<path d="M2421 1494 c0 -11 3 -14 6 -6 3 7 2 16 -1 19 -3 4 -6 -2 -5 -13z"/>
<path d="M3767 1689 c4 -13 8 -18 11 -10 2 7 -1 18 -6 23 -8 8 -9 4 -5 -13z"/>
</g>
</svg>
